<?xml version="1.0" encoding="utf-8"?>
<!-- Generator: Adobe Illustrator 21.0.2, SVG Export Plug-In . SVG Version: 6.00 Build 0)  -->
<svg version="1.1" id="Layer_1" xmlns="http://www.w3.org/2000/svg" xmlns:xlink="http://www.w3.org/1999/xlink" x="0px" y="0px"
	 viewBox="0 0 131.3 71.3" style="enable-background:new 0 0 131.3 71.3;" xml:space="preserve">
<style type="text/css">
	.st0{fill:#05101E;}
	.st1{fill:none;stroke:#FF5A4F;stroke-miterlimit:10;}
	.st2{fill:#FF5A4F;}
	.st3{fill:none;stroke:#FF5A4F;stroke-linecap:round;stroke-linejoin:round;stroke-miterlimit:10;}
	.st4{opacity:0.2;fill:#FF5A4F;}
	.st5{fill:none;stroke:#FF5A4F;stroke-linecap:round;stroke-miterlimit:10;}
	.st6{fill:#F15B52;stroke:#F15B52;stroke-miterlimit:10;}
	.st7{fill:none;stroke:#F15B52;stroke-miterlimit:10;}
	.st8{fill:#05101E;stroke:#FF5A4F;stroke-miterlimit:10;}
	.st9{fill:none;stroke:#05101E;stroke-miterlimit:10;}
	.st10{fill:none;stroke:#F9CA03;stroke-miterlimit:10;}
	.st11{fill:#FFFFFF;}
	.st12{display:none;}
	.st13{stroke:#FF5A4F;stroke-linecap:round;stroke-miterlimit:10;}
	.st14{fill:none;stroke:#FF7726;stroke-miterlimit:10;}
	.st15{fill:none;stroke:#FF5A4F;stroke-linejoin:round;stroke-miterlimit:10;}
	.st16{opacity:0.3;fill:url(#SVGID_1_);}
	.st17{opacity:0.3;fill:url(#SVGID_2_);}
	.st18{opacity:0.3;}
	.st19{fill:none;stroke:#FFFFFF;stroke-miterlimit:10;}
	.st20{fill:none;stroke:#FFFFFF;stroke-miterlimit:10;stroke-dasharray:6.3259,6.3259;}
	.st21{fill:none;stroke:#FFFFFF;stroke-miterlimit:10;stroke-dasharray:6.1212,6.1212;}
	.st22{fill:none;stroke:#FFFFFF;stroke-miterlimit:10;stroke-dasharray:5.9605,5.9605;}
	.st23{fill:none;stroke:#FFFFFF;stroke-miterlimit:10;stroke-dasharray:5.9128,5.9128;}
	.st24{fill:none;stroke:#FFFFFF;stroke-miterlimit:10;stroke-dasharray:6.0345,6.0345;}
	.st25{fill:none;stroke:#FFFFFF;stroke-miterlimit:10;stroke-dasharray:4.4118,4.4118;}
	.st26{fill:none;stroke:#FFFFFF;stroke-miterlimit:10;stroke-dasharray:6;}
	.st27{fill:none;stroke:#FF5A4F;stroke-miterlimit:10;stroke-dasharray:6;}
	.st28{fill:#FF7726;}
	.st29{opacity:0.8;fill:#05101E;}
	.st30{fill:#05101E;stroke:#FF7726;stroke-miterlimit:10;}
	.st31{fill:#FF5A4F;stroke:#FF5A4F;stroke-miterlimit:10;}
	.st32{fill:#FF7726;stroke:#FF7726;stroke-miterlimit:10;}
	.st33{fill:none;stroke:#FFFFFF;stroke-linejoin:round;stroke-miterlimit:10;}
	.st34{fill:#05101E;stroke:#05101E;stroke-miterlimit:10;}
	.st35{fill:none;stroke:#FF7726;stroke-linejoin:round;stroke-miterlimit:10;}
	.st36{opacity:0.5;}
	.st37{fill-rule:evenodd;clip-rule:evenodd;fill:#FFFFFF;}
</style>
<g>
	<g>
		<g>
			<polygon class="st11" points="34.9,25.3 31.7,24.2 31.7,19.7 34.9,20.6 			"/>
			<polyline class="st11" points="35.7,20.6 38.9,19.7 38.8,24.2 35.7,25.3 35.7,20.6 			"/>
			<polyline class="st11" points="38.2,19.2 35.3,18.3 32.4,19.2 35.3,19.9 38.2,19.2 			"/>
			<polygon class="st11" points="42.8,25.3 39.7,24.2 39.7,19.7 42.8,20.6 			"/>
			<polyline class="st11" points="43.6,20.6 46.8,19.7 46.8,24.2 43.6,25.3 43.6,20.6 			"/>
			<polyline class="st11" points="46.2,19.2 43.2,18.3 40.3,19.2 43.2,19.9 46.2,19.2 			"/>
			<polygon class="st11" points="23,27.3 19.8,26.3 19.8,30.9 22.9,32 			"/>
			<polyline class="st11" points="23.8,27.3 26.9,26.3 26.9,30.9 23.8,32 23.8,27.3 			"/>
			<polyline class="st11" points="26.3,25.8 23.3,24.9 20.4,25.8 23.3,26.6 26.3,25.8 			"/>
			<polygon class="st11" points="30.9,32 27.7,30.9 27.7,26.3 30.9,27.3 			"/>
			<polyline class="st11" points="31.7,27.3 34.9,26.3 34.9,30.9 31.7,32 31.7,27.3 			"/>
			<polyline class="st11" points="34.2,25.8 31.3,24.9 28.4,25.8 31.3,26.6 34.2,25.8 			"/>
			<polygon class="st11" points="26.9,38.6 23.8,37.6 23.8,33 26.9,34 			"/>
			<polyline class="st11" points="27.7,34 30.9,33 30.9,37.6 27.7,38.6 27.7,34 			"/>
			<polyline class="st11" points="30.3,32.5 27.3,31.6 24.4,32.5 27.3,33.3 30.3,32.5 			"/>
		</g>
		<g>
			<path class="st11" d="M40.9,34.6l-0.2,0c-0.1,0-0.2,0.1-0.2,0.2l-0.7,2.5L39,34.8c0-0.1-0.1-0.2-0.2-0.2h-0.3
				c-0.1,0-0.2,0.1-0.2,0.2l-0.6,2.5l-0.7-2.5c0-0.1-0.1-0.2-0.2-0.2l-0.3,0c-0.1,0-0.1,0-0.2,0.1c0,0,0,0.1,0,0.1l1,3.7
				c0,0.1,0.1,0.2,0.2,0.2h0.3c0.1,0,0.2-0.1,0.2-0.2l0.6-2.4l0.7,2.4c0,0.1,0.1,0.2,0.2,0.2h0.3c0.1,0,0.2-0.1,0.2-0.2l1-3.7
				c0,0,0-0.1,0-0.1C41,34.6,41,34.6,40.9,34.6z"/>
			<path class="st11" d="M42.9,34.6c-1.2,0-1.7,1-1.7,2c0,1.2,0.7,2,1.7,2c0.7,0,1.3-0.4,1.6-1c0,0,0-0.1,0-0.1c0,0-0.1-0.1-0.1-0.1
				L44,37.3c-0.1,0-0.2,0-0.2,0.1c-0.2,0.4-0.5,0.6-0.8,0.6c-0.4,0-0.7-0.2-0.8-0.5C42,37.2,42,37,42,36.7l2.4,0
				c0.1,0,0.1,0,0.1-0.1c0,0,0-0.1,0-0.1C44.5,35.6,44.1,34.6,42.9,34.6z M43.8,36.2H42c0-0.5,0.4-1,0.9-1
				C43.5,35.2,43.7,35.7,43.8,36.2z"/>
			<path class="st11" d="M46.8,34.5L46.8,34.5c-0.5,0-0.8,0.2-1,0.5l0-1.5c0-0.1-0.1-0.2-0.2-0.2h-0.3c-0.1,0-0.2,0.1-0.2,0.2v4.8
				c0,0.1,0.1,0.2,0.2,0.2l0.1,0c0.1,0,0.2-0.1,0.2-0.1l0.1-0.3c0.2,0.4,0.6,0.6,1,0.6h0.1c1.1,0,1.5-1,1.5-2.1c0-0.5-0.1-1-0.3-1.3
				C47.6,34.8,47.2,34.5,46.8,34.5z M47.5,36.6c0,0.2,0,1.3-0.8,1.4c-0.3,0-0.5-0.2-0.7-0.4c-0.1-0.2-0.2-0.4-0.2-0.7v-0.7
				c0-0.5,0.4-1.1,0.9-1.1C47.4,35.2,47.5,36.4,47.5,36.6z"/>
			<path class="st11" d="M52,36.5c-0.2-0.2-0.5-0.2-0.8-0.3l-0.5-0.1c-0.4-0.1-0.6-0.2-0.6-0.5c0-0.3,0.4-0.5,0.7-0.5
				c0.4,0,0.6,0.2,0.8,0.5c0,0.1,0.1,0.1,0.2,0.1c0,0,0,0,0,0l0.3-0.1c0.1,0,0.1,0,0.1-0.1c0,0,0-0.1,0-0.1
				c-0.2-0.6-0.7-0.9-1.4-0.9c-0.7,0-1.4,0.3-1.4,1.2c0,0.6,0.4,0.9,1.1,1.1l0.6,0.1c0.3,0.1,0.6,0.2,0.6,0.5c0,0.5-0.6,0.6-0.8,0.6
				c-0.4,0-0.8-0.2-1-0.6c0-0.1-0.1-0.1-0.2-0.1l-0.3,0.1c0,0-0.1,0-0.1,0.1c0,0,0,0.1,0,0.1c0.2,0.6,0.8,1,1.6,1h0
				c0.7,0,1.5-0.3,1.5-1.2C52.4,37,52.3,36.7,52,36.5z"/>
			<path class="st11" d="M54.5,34.6c-1.2,0-1.7,1-1.7,2c0,1.2,0.7,2,1.7,2c0.7,0,1.3-0.4,1.6-1c0,0,0-0.1,0-0.1c0,0-0.1-0.1-0.1-0.1
				l-0.3-0.1c-0.1,0-0.2,0-0.2,0.1c-0.2,0.4-0.5,0.6-0.8,0.6c-0.4,0-0.7-0.2-0.8-0.5c-0.1-0.3-0.1-0.5-0.1-0.8l2.4,0
				c0,0,0.1,0,0.1-0.1c0,0,0-0.1,0-0.1C56.1,35.6,55.7,34.6,54.5,34.6z M55.4,36.2h-1.8c0-0.5,0.4-1,0.9-1
				C55.1,35.2,55.4,35.7,55.4,36.2z"/>
			<path class="st11" d="M58.4,34.6c0,0-0.1,0-0.1,0c-0.4,0-0.7,0.2-0.9,0.6l0-0.4c0-0.1-0.1-0.2-0.2-0.2h-0.3
				c-0.1,0-0.2,0.1-0.2,0.2l0,3.5c0,0.1,0.1,0.2,0.2,0.2h0.3c0.1,0,0.2-0.1,0.2-0.2l0-1.8c0-0.3,0-0.5,0.2-0.8
				c0.2-0.4,0.5-0.6,0.9-0.6c0.1,0,0.2-0.1,0.2-0.2v-0.3C58.6,34.7,58.5,34.6,58.4,34.6z"/>
			<path class="st11" d="M62,34.6h-0.3c-0.1,0-0.2,0.1-0.2,0.2l-0.9,2.8l-0.9-2.8c0-0.1-0.1-0.2-0.2-0.2h-0.4c-0.1,0-0.1,0-0.2,0.1
				c0,0,0,0.1,0,0.1l1.2,3.7c0,0.1,0.1,0.2,0.2,0.2h0.5c0.1,0,0.2-0.1,0.2-0.2l1.2-3.7c0,0,0-0.1,0-0.1C62.2,34.6,62.1,34.6,62,34.6
				z"/>
			<circle class="st11" cx="62.9" cy="33.6" r="0.5"/>
			<path class="st11" d="M63.1,34.5h-0.4c-0.1,0-0.2,0.1-0.2,0.2l0,3.8c0,0,0,0.1,0.1,0.1c0,0,0.1,0,0.1,0l0.4,0h0
				c0.1,0,0.2-0.1,0.2-0.2v-3.8C63.3,34.6,63.2,34.5,63.1,34.5z"/>
			<path class="st11" d="M66.6,37.1l-0.3,0c-0.1,0-0.2,0.1-0.2,0.1C66,37.7,65.8,38,65.4,38c-0.8,0-0.8-1.1-0.8-1.4
				c0-0.7,0.2-1.4,0.9-1.4c0.4,0,0.7,0.3,0.7,0.7c0,0.1,0.1,0.2,0.2,0.2l0.3,0c0.1,0,0.2-0.1,0.2-0.2c-0.1-0.8-0.7-1.3-1.4-1.3l0,0
				l0,0c-1.1,0-1.6,1-1.6,2c0,0.9,0.4,2,1.6,2h0.1c0.7,0,1.3-0.5,1.4-1.3c0,0,0-0.1,0-0.1C66.8,37.1,66.7,37.1,66.6,37.1z"/>
			<path class="st11" d="M68.9,34.6c-1.2,0-1.7,1-1.7,2c0,1.2,0.7,2,1.7,2c0.7,0,1.3-0.4,1.6-1c0,0,0-0.1,0-0.1c0,0-0.1-0.1-0.1-0.1
				l-0.3-0.1c-0.1,0-0.2,0-0.2,0.1c-0.2,0.4-0.5,0.6-0.8,0.6c-0.4,0-0.7-0.2-0.8-0.5c-0.1-0.3-0.1-0.5-0.1-0.8l2.4,0
				c0.1,0,0.1,0,0.1-0.1c0,0,0-0.1,0-0.1C70.5,35.6,70.1,34.6,68.9,34.6z M69.7,36.2H68c0-0.5,0.4-1,0.9-1
				C69.5,35.2,69.7,35.7,69.7,36.2z"/>
			<path class="st11" d="M73.5,36.5c-0.2-0.2-0.5-0.2-0.8-0.3l-0.5-0.1c-0.4-0.1-0.6-0.2-0.6-0.5c0-0.4,0.5-0.5,0.7-0.5
				c0.4,0,0.6,0.2,0.8,0.5c0,0.1,0.1,0.1,0.2,0.1c0,0,0,0,0,0l0.3-0.1c0.1,0,0.1,0,0.1-0.1c0,0,0-0.1,0-0.1
				c-0.2-0.6-0.7-0.9-1.4-0.9c-0.7,0-1.4,0.3-1.4,1.2c0,0.6,0.4,0.9,1.1,1.1l0.6,0.1c0.3,0.1,0.6,0.2,0.6,0.5c0,0.5-0.6,0.6-0.8,0.6
				c-0.4,0-0.8-0.2-1-0.6c0-0.1-0.1-0.1-0.2-0.1l-0.3,0.1c-0.1,0-0.1,0-0.1,0.1c0,0,0,0.1,0,0.1c0.2,0.6,0.8,1,1.6,1h0
				c0.7,0,1.5-0.3,1.5-1.2C73.9,37,73.8,36.7,73.5,36.5z"/>
		</g>
		<g>
			<path class="st37" d="M58.2,27.3v-0.9c0-0.1,0.1-0.2,0.2-0.2h3.8c0.1,0,0.2,0.1,0.2,0.2v0.7c0,0.1-0.1,0.3-0.3,0.5l-2,2.8
				c0.7,0,1.5,0.1,2.2,0.5c0.1,0.1,0.2,0.2,0.2,0.3v0.9c0,0.1-0.1,0.3-0.3,0.2c-1.2-0.6-2.7-0.7-4,0c-0.1,0.1-0.3-0.1-0.3-0.2v-0.9
				c0-0.1,0-0.4,0.1-0.6l2.3-3.3l-2,0C58.3,27.5,58.2,27.4,58.2,27.3"/>
			<path class="st37" d="M44.3,32.6h-1.2c-0.1,0-0.2-0.1-0.2-0.2l0-6c0-0.1,0.1-0.2,0.2-0.2l1.1,0c0.1,0,0.2,0.1,0.2,0.2v0.8h0
				c0.3-0.8,0.8-1.1,1.5-1.1c0.7,0,1.2,0.4,1.5,1.1c0.3-0.8,0.9-1.1,1.6-1.1c0.5,0,1,0.2,1.3,0.7c0.4,0.5,0.3,1.2,0.3,1.9l0,3.8
				c0,0.1-0.1,0.2-0.2,0.2h-1.2c-0.1,0-0.2-0.1-0.2-0.2v-3.2c0-0.3,0-0.9,0-1.1c-0.1-0.4-0.3-0.5-0.7-0.5c-0.3,0-0.6,0.2-0.7,0.5
				c-0.1,0.3-0.1,0.8-0.1,1.1v3.2c0,0.1-0.1,0.2-0.2,0.2h-1.2c-0.1,0-0.2-0.1-0.2-0.2l0-3.2c0-0.7,0.1-1.6-0.7-1.6
				c-0.8,0-0.8,1-0.8,1.6l0,3.2C44.5,32.5,44.4,32.6,44.3,32.6"/>
			<path class="st37" d="M65.8,26.1c1.7,0,2.7,1.5,2.7,3.4c0,1.8-1,3.3-2.7,3.3c-1.7,0-2.6-1.5-2.6-3.3
				C63.1,27.6,64.1,26.1,65.8,26.1 M65.8,27.3c-0.9,0-0.9,1.2-0.9,1.9c0,0.7,0,2.3,0.9,2.3c0.9,0,0.9-1.3,0.9-2c0-0.5,0-1.1-0.2-1.6
				C66.4,27.5,66.1,27.3,65.8,27.3z"/>
			<path class="st37" d="M70.6,32.6h-1.2c-0.1,0-0.2-0.1-0.2-0.2l0-6c0-0.1,0.1-0.2,0.2-0.2l1.1,0c0.1,0,0.2,0.1,0.2,0.2v0.9h0
				c0.3-0.8,0.8-1.2,1.6-1.2c0.5,0,1,0.2,1.4,0.7c0.3,0.5,0.3,1.3,0.3,1.9v3.8c0,0.1-0.1,0.2-0.2,0.2h-1.2c-0.1,0-0.2-0.1-0.2-0.2
				v-3.2c0-0.7,0.1-1.6-0.7-1.6c-0.3,0-0.5,0.2-0.7,0.5c-0.2,0.4-0.2,0.7-0.2,1.1v3.2C70.9,32.5,70.8,32.6,70.6,32.6"/>
			<path class="st37" d="M55.2,29.8c0,0.5,0,0.8-0.2,1.2c-0.2,0.3-0.5,0.5-0.8,0.5c-0.4,0-0.7-0.3-0.7-0.8c0-1,0.9-1.2,1.7-1.2V29.8
				 M56.4,32.6c-0.1,0.1-0.2,0.1-0.3,0c-0.4-0.3-0.5-0.5-0.7-0.8c-0.6,0.7-1.1,0.8-1.9,0.8c-1,0-1.7-0.6-1.7-1.8
				c0-0.9,0.5-1.6,1.2-1.9c0.6-0.3,1.5-0.3,2.2-0.4v-0.2c0-0.3,0-0.6-0.1-0.8c-0.1-0.2-0.4-0.3-0.7-0.3c-0.4,0-0.8,0.2-0.9,0.7
				c0,0.1-0.1,0.2-0.2,0.2l-1.1-0.1c-0.1,0-0.2-0.1-0.2-0.2c0.3-1.4,1.5-1.8,2.6-1.8c0.6,0,1.3,0.2,1.7,0.6c0.6,0.5,0.5,1.2,0.5,2
				v1.8c0,0.5,0.2,0.8,0.4,1.1c0.1,0.1,0.1,0.2,0,0.3C57,32,56.6,32.4,56.4,32.6L56.4,32.6z"/>
			<path class="st37" d="M40,29.8c0,0.5,0,0.8-0.2,1.2c-0.2,0.3-0.5,0.5-0.8,0.5c-0.4,0-0.7-0.3-0.7-0.8c0-1,0.9-1.2,1.7-1.2V29.8
				 M41.1,32.6c-0.1,0.1-0.2,0.1-0.3,0c-0.4-0.3-0.5-0.5-0.7-0.8c-0.6,0.7-1.1,0.8-1.9,0.8c-1,0-1.7-0.6-1.7-1.8
				c0-0.9,0.5-1.6,1.2-1.9c0.6-0.3,1.5-0.3,2.2-0.4v-0.2c0-0.3,0-0.6-0.1-0.8c-0.1-0.2-0.4-0.3-0.7-0.3c-0.4,0-0.8,0.2-0.9,0.7
				c0,0.1-0.1,0.2-0.2,0.2l-1.1-0.1c-0.1,0-0.2-0.1-0.2-0.2c0.3-1.4,1.5-1.8,2.6-1.8c0.6,0,1.3,0.2,1.7,0.6c0.6,0.5,0.5,1.2,0.5,2
				v1.8c0,0.5,0.2,0.8,0.4,1.1c0.1,0.1,0.1,0.2,0,0.3C41.8,32,41.4,32.4,41.1,32.6L41.1,32.6z"/>
		</g>
	</g>
	<g>
		<path class="st11" d="M83.4,33.6h0.5l3.8,5.1h0v-5.1H88v5.6h-0.4L83.8,34h0v5.2h-0.4V33.6z"/>
		<path class="st11" d="M89,37.2c0,0.9,0.5,1.8,1.6,1.8c0.8,0,1.4-0.5,1.5-1.2h0.3c-0.2,0.9-0.8,1.5-1.9,1.5c-1.3,0-1.9-0.9-1.9-2
			c0-1.1,0.6-2.2,1.9-2.2c1.3,0,1.9,1,1.9,2.1H89z M92.2,37c0-0.8-0.6-1.6-1.6-1.6c-1,0-1.5,0.8-1.6,1.6H92.2z"/>
		<path class="st11" d="M94.8,35.4h-0.9v2.8c0,0.6,0.3,0.7,0.9,0.7v0.3c-0.7,0-1.3,0-1.2-1v-2.8h-0.8v-0.3h0.8v-1.2h0.3v1.2h0.9
			V35.4z"/>
		<path class="st11" d="M96.4,38.8L96.4,38.8l1.2-3.7h0.4l1.2,3.7h0l1.2-3.7h0.4l-1.4,4H99l-1.2-3.6h0l-1.2,3.6h-0.4l-1.4-4h0.3
			L96.4,38.8z"/>
		<path class="st11" d="M102.9,35.1c1.3,0,2,1,2,2.1c0,1.1-0.7,2.1-2,2.1c-1.3,0-2-1-2-2.1C100.9,36,101.6,35.1,102.9,35.1z
			 M102.9,39c1.1,0,1.7-0.9,1.7-1.8c0-1-0.6-1.8-1.7-1.8c-1.1,0-1.7,0.9-1.7,1.8C101.2,38.1,101.8,39,102.9,39z"/>
		<path class="st11" d="M105.9,36.1L105.9,36.1c0.2-0.5,0.9-0.9,1.7-0.9v0.3c-0.3,0-0.8,0-1.2,0.4c-0.3,0.3-0.5,0.6-0.5,1.2v2.2
			h-0.3v-4h0.3V36.1z"/>
		<path class="st11" d="M107.9,33.6h0.3v3.7l2.7-2.1h0.5l-1.9,1.5l2,2.5h-0.4l-1.8-2.3l-1,0.8v1.5h-0.3V33.6z"/>
	</g>
	<g>
		<path class="st11" d="M83.4,26.3h2.5c0.7,0,1.7,0.2,1.7,1.5c0,1-0.7,1.5-1.8,1.5h-2v2.4h-0.4V26.3z M83.8,29.1h2.1
			c1.1,0,1.4-0.7,1.4-1.2c0-0.4-0.2-1.2-1.4-1.2h-2.1V29.1z"/>
		<path class="st11" d="M91.4,31.1c0,0.2,0,0.5,0.3,0.5c0.1,0,0.1,0,0.2,0v0.2c-0.1,0-0.2,0-0.3,0c-0.5,0-0.6-0.3-0.6-0.6V31h0
			c-0.2,0.5-0.8,0.9-1.6,0.9c-0.8,0-1.4-0.3-1.4-1.1c0-0.9,0.9-1.1,1.6-1.2c1.4-0.1,1.5-0.2,1.5-0.8c0-0.2-0.2-0.8-1.2-0.8
			c-0.8,0-1.3,0.4-1.3,1.1h-0.3c0-0.9,0.6-1.3,1.6-1.3c0.7,0,1.5,0.2,1.5,1V31.1z M91.1,29.6c-0.2,0.3-0.9,0.2-1.5,0.3
			c-0.7,0.1-1.2,0.3-1.2,0.9c0,0.5,0.4,0.9,1.1,0.9c1.4,0,1.6-1.1,1.6-1.3V29.6z"/>
		<path class="st11" d="M92.7,28.7L92.7,28.7c0.2-0.5,0.9-0.9,1.6-0.9v0.3c-0.3,0-0.8,0-1.2,0.4c-0.3,0.3-0.4,0.5-0.5,1.1v2.2h-0.3
			v-4h0.3V28.7z"/>
		<path class="st11" d="M96.5,28.1h-0.9v2.8c0,0.6,0.3,0.7,0.9,0.7v0.3c-0.6,0-1.3,0-1.2-0.9v-2.8h-0.8v-0.3h0.8v-1.2h0.3v1.2h0.9
			V28.1z"/>
		<path class="st11" d="M97,27.9h0.3v0.8h0c0.2-0.6,0.9-0.9,1.5-0.9c1.5,0,1.5,1.1,1.5,1.6v2.4h-0.3v-2.5c0-0.4,0-1.3-1.2-1.3
			c-0.9,0-1.5,0.7-1.5,1.7v2.1H97V27.9z"/>
		<path class="st11" d="M101.5,29.9c0,0.9,0.5,1.8,1.6,1.8c0.8,0,1.4-0.4,1.5-1.2h0.3c-0.2,0.9-0.8,1.4-1.8,1.4
			c-1.2,0-1.9-0.9-1.9-2c0-1.1,0.6-2.1,1.9-2.1c1.3,0,1.9,1,1.9,2.1H101.5z M104.6,29.6c0-0.8-0.6-1.6-1.5-1.6
			c-0.9,0-1.5,0.8-1.6,1.6H104.6z"/>
		<path class="st11" d="M105.9,28.7L105.9,28.7c0.2-0.5,0.9-0.9,1.6-0.9v0.3c-0.3,0-0.8,0-1.2,0.4c-0.3,0.3-0.4,0.5-0.5,1.1v2.2
			h-0.3v-4h0.3V28.7z"/>
	</g>
	<g>
		<rect x="78.8" y="22.1" class="st11" width="0.3" height="21.5"/>
	</g>
</g>
<g>
	<path class="st11" d="M42.3,49c-0.2-0.1-0.4-0.2-0.6-0.2c-0.2,0-0.4,0-0.5,0.1c-0.1,0.1-0.3,0.2-0.3,0.3c-0.1,0.1-0.2,0.3-0.2,0.4
		c0,0.2-0.1,0.3-0.1,0.5c0,0.2,0,0.4,0.1,0.5c0,0.2,0.1,0.3,0.2,0.4c0.1,0.1,0.2,0.2,0.3,0.3c0.1,0.1,0.3,0.1,0.5,0.1
		c0.1,0,0.3,0,0.4-0.1c0.1,0,0.2-0.1,0.3-0.2c0.1-0.1,0.1-0.2,0.2-0.3c0-0.1,0.1-0.2,0.1-0.4h0.4c0,0.4-0.2,0.7-0.4,1
		c-0.2,0.2-0.6,0.3-1,0.3c-0.3,0-0.5,0-0.7-0.1c-0.2-0.1-0.3-0.2-0.5-0.4c-0.1-0.2-0.2-0.3-0.3-0.5c-0.1-0.2-0.1-0.4-0.1-0.7
		c0-0.2,0-0.5,0.1-0.7c0.1-0.2,0.2-0.4,0.3-0.6c0.1-0.2,0.3-0.3,0.5-0.4c0.2-0.1,0.4-0.1,0.7-0.1c0.2,0,0.3,0,0.5,0.1
		c0.2,0,0.3,0.1,0.4,0.2c0.1,0.1,0.2,0.2,0.3,0.3c0.1,0.1,0.1,0.3,0.2,0.5h-0.4C42.6,49.3,42.5,49.1,42.3,49z"/>
	<path class="st11" d="M43.6,49.6c0.1-0.2,0.2-0.4,0.3-0.6c0.1-0.2,0.3-0.3,0.5-0.4c0.2-0.1,0.4-0.1,0.7-0.1c0.3,0,0.5,0,0.7,0.1
		c0.2,0.1,0.4,0.2,0.5,0.4c0.1,0.2,0.2,0.3,0.3,0.6c0.1,0.2,0.1,0.4,0.1,0.6c0,0.2,0,0.4-0.1,0.6c-0.1,0.2-0.2,0.4-0.3,0.6
		c-0.1,0.2-0.3,0.3-0.5,0.4c-0.2,0.1-0.4,0.1-0.7,0.1c-0.3,0-0.5,0-0.7-0.1c-0.2-0.1-0.4-0.2-0.5-0.4c-0.1-0.2-0.2-0.3-0.3-0.6
		c-0.1-0.2-0.1-0.4-0.1-0.6C43.5,50,43.5,49.8,43.6,49.6z M44,50.7c0,0.2,0.1,0.3,0.2,0.4c0.1,0.1,0.2,0.2,0.4,0.3
		c0.1,0.1,0.3,0.1,0.5,0.1c0.2,0,0.4,0,0.5-0.1c0.1-0.1,0.3-0.2,0.4-0.3c0.1-0.1,0.2-0.3,0.2-0.4c0-0.2,0.1-0.3,0.1-0.5
		c0-0.2,0-0.3-0.1-0.5c0-0.2-0.1-0.3-0.2-0.4c-0.1-0.1-0.2-0.2-0.4-0.3c-0.1-0.1-0.3-0.1-0.5-0.1c-0.2,0-0.4,0-0.5,0.1
		c-0.1,0.1-0.3,0.2-0.4,0.3c-0.1,0.1-0.2,0.3-0.2,0.4c0,0.2-0.1,0.3-0.1,0.5C43.9,50.4,43.9,50.5,44,50.7z"/>
	<path class="st11" d="M47.6,48.6l1.7,2.7h0v-2.7h0.4v3.3h-0.5l-1.7-2.6h0v2.6h-0.4v-3.3H47.6z"/>
	<path class="st11" d="M52.1,49c-0.1-0.1-0.3-0.2-0.6-0.2c-0.1,0-0.2,0-0.3,0c-0.1,0-0.2,0-0.2,0.1c-0.1,0-0.1,0.1-0.2,0.2
		c0,0.1-0.1,0.2-0.1,0.3c0,0.1,0,0.2,0.1,0.2c0.1,0.1,0.1,0.1,0.2,0.2c0.1,0,0.2,0.1,0.3,0.1c0.1,0,0.3,0.1,0.4,0.1
		c0.1,0,0.3,0.1,0.4,0.1c0.1,0,0.2,0.1,0.3,0.2c0.1,0.1,0.2,0.2,0.2,0.3c0.1,0.1,0.1,0.2,0.1,0.4c0,0.2,0,0.3-0.1,0.5
		c-0.1,0.1-0.2,0.2-0.3,0.3c-0.1,0.1-0.3,0.1-0.4,0.2c-0.2,0-0.3,0.1-0.5,0.1c-0.2,0-0.4,0-0.5-0.1c-0.2,0-0.3-0.1-0.4-0.2
		c-0.1-0.1-0.2-0.2-0.3-0.4c-0.1-0.1-0.1-0.3-0.1-0.5h0.4c0,0.1,0,0.3,0.1,0.4c0.1,0.1,0.1,0.2,0.2,0.2c0.1,0.1,0.2,0.1,0.3,0.1
		c0.1,0,0.2,0,0.4,0c0.1,0,0.2,0,0.3,0c0.1,0,0.2-0.1,0.3-0.1c0.1,0,0.1-0.1,0.2-0.2c0-0.1,0.1-0.2,0.1-0.3c0-0.1,0-0.2-0.1-0.3
		c-0.1-0.1-0.1-0.1-0.2-0.2c-0.1,0-0.2-0.1-0.3-0.1c-0.1,0-0.3-0.1-0.4-0.1c-0.1,0-0.3-0.1-0.4-0.1c-0.1,0-0.2-0.1-0.3-0.2
		c-0.1-0.1-0.2-0.1-0.2-0.2c-0.1-0.1-0.1-0.2-0.1-0.4c0-0.2,0-0.3,0.1-0.4c0.1-0.1,0.2-0.2,0.3-0.3c0.1-0.1,0.2-0.1,0.4-0.2
		c0.1,0,0.3-0.1,0.4-0.1c0.2,0,0.3,0,0.5,0.1c0.1,0,0.3,0.1,0.4,0.2c0.1,0.1,0.2,0.2,0.3,0.3c0.1,0.1,0.1,0.3,0.1,0.5h-0.4
		C52.4,49.3,52.3,49.1,52.1,49z"/>
	<path class="st11" d="M55.8,51.6c-0.2,0.2-0.5,0.3-1,0.3c-0.4,0-0.8-0.1-1-0.3c-0.2-0.2-0.4-0.5-0.4-1v-2.1h0.4v2.1
		c0,0.3,0.1,0.5,0.2,0.7c0.2,0.2,0.4,0.2,0.7,0.2c0.3,0,0.5-0.1,0.6-0.2c0.1-0.2,0.2-0.4,0.2-0.7v-2.1h0.4v2.1
		C56.1,51.1,56,51.4,55.8,51.6z"/>
	<path class="st11" d="M57.3,48.6v2.9H59v0.4h-2.2v-3.3H57.3z"/>
	<path class="st11" d="M58.6,48.9v-0.4h2.6v0.4h-1.1v2.9h-0.4v-2.9H58.6z"/>
	<path class="st11" d="M62.1,48.6v3.3h-0.4v-3.3H62.1z"/>
	<path class="st11" d="M63.3,48.6l1.7,2.7h0v-2.7h0.4v3.3H65l-1.7-2.6h0v2.6h-0.4v-3.3H63.3z"/>
	<path class="st11" d="M68.1,51.8c-0.2,0.1-0.4,0.1-0.6,0.1c-0.2,0-0.5,0-0.7-0.1c-0.2-0.1-0.4-0.2-0.5-0.4
		c-0.1-0.2-0.2-0.3-0.3-0.5C66,50.7,66,50.5,66,50.3c0-0.2,0-0.5,0.1-0.7c0.1-0.2,0.2-0.4,0.3-0.6c0.1-0.2,0.3-0.3,0.5-0.4
		c0.2-0.1,0.4-0.1,0.7-0.1c0.2,0,0.3,0,0.5,0.1c0.2,0,0.3,0.1,0.4,0.2c0.1,0.1,0.2,0.2,0.3,0.3c0.1,0.1,0.1,0.3,0.2,0.5h-0.4
		c0-0.1-0.1-0.2-0.1-0.3c-0.1-0.1-0.1-0.2-0.2-0.2c-0.1-0.1-0.2-0.1-0.3-0.1c-0.1,0-0.2,0-0.3,0c-0.2,0-0.4,0-0.5,0.1
		c-0.1,0.1-0.3,0.2-0.4,0.3c-0.1,0.1-0.2,0.3-0.2,0.4c0,0.2-0.1,0.3-0.1,0.5c0,0.2,0,0.3,0.1,0.5c0,0.2,0.1,0.3,0.2,0.4
		c0.1,0.1,0.2,0.2,0.4,0.3c0.1,0.1,0.3,0.1,0.5,0.1c0.2,0,0.3,0,0.5-0.1c0.1-0.1,0.2-0.1,0.3-0.2c0.1-0.1,0.2-0.2,0.2-0.3
		c0-0.1,0.1-0.3,0.1-0.4h-1.1v-0.4H69v1.7h-0.3l-0.1-0.4C68.5,51.6,68.3,51.7,68.1,51.8z"/>
	<path class="st11" d="M72.4,48.6c0.3,0,0.6,0.1,0.8,0.3c0.2,0.2,0.3,0.4,0.3,0.7c0,0.3-0.1,0.5-0.3,0.7c-0.2,0.2-0.4,0.3-0.8,0.3
		h-1v1.3h-0.4v-3.3H72.4z M72.2,50.1c0.2,0,0.4,0,0.5-0.2c0.1-0.1,0.2-0.3,0.2-0.5c0-0.2-0.1-0.3-0.2-0.5c-0.1-0.1-0.3-0.2-0.5-0.2
		h-0.9v1.2H72.2z"/>
	<path class="st11" d="M75,48.6l1.3,3.3h-0.5l-0.4-1H74l-0.4,1h-0.4l1.3-3.3H75z M75.3,50.5L74.7,49h0l-0.6,1.5H75.3z"/>
	<path class="st11" d="M78.1,48.6c0.3,0,0.6,0.1,0.7,0.2c0.2,0.2,0.3,0.4,0.3,0.6c0,0.2,0,0.4-0.1,0.5c-0.1,0.2-0.2,0.3-0.4,0.3v0
		c0.1,0,0.2,0,0.2,0.1c0.1,0,0.1,0.1,0.1,0.2c0,0.1,0.1,0.1,0.1,0.2c0,0.1,0,0.2,0,0.2c0,0.1,0,0.2,0,0.2c0,0.1,0,0.2,0,0.2
		c0,0.1,0,0.2,0.1,0.2c0,0.1,0.1,0.1,0.1,0.2h-0.5c0,0-0.1-0.1-0.1-0.1c0-0.1,0-0.1,0-0.2c0-0.1,0-0.2,0-0.2c0-0.1,0-0.2,0-0.2
		c0-0.1,0-0.2,0-0.2c0-0.1,0-0.1-0.1-0.2c0-0.1-0.1-0.1-0.2-0.1c-0.1,0-0.2,0-0.3,0H77v1.4h-0.4v-3.3H78.1z M78.2,50.1
		c0.1,0,0.2,0,0.2-0.1c0.1,0,0.1-0.1,0.2-0.2c0-0.1,0.1-0.2,0.1-0.3c0-0.2,0-0.3-0.1-0.4c-0.1-0.1-0.2-0.2-0.4-0.2H77v1.2h0.9
		C78,50.1,78.1,50.1,78.2,50.1z"/>
	<path class="st11" d="M79.3,48.9v-0.4h2.6v0.4h-1.1v2.9h-0.4v-2.9H79.3z"/>
	<path class="st11" d="M82.8,48.6l1.7,2.7h0v-2.7h0.4v3.3h-0.5l-1.7-2.6h0v2.6h-0.4v-3.3H82.8z"/>
	<path class="st11" d="M87.9,48.6v0.4h-1.8v1h1.7v0.4h-1.7v1.1h1.9v0.4h-2.3v-3.3H87.9z"/>
	<path class="st11" d="M90,48.6c0.3,0,0.6,0.1,0.7,0.2c0.2,0.2,0.3,0.4,0.3,0.6c0,0.2,0,0.4-0.1,0.5c-0.1,0.2-0.2,0.3-0.4,0.3v0
		c0.1,0,0.2,0,0.2,0.1c0.1,0,0.1,0.1,0.1,0.2c0,0.1,0.1,0.1,0.1,0.2c0,0.1,0,0.2,0,0.2c0,0.1,0,0.2,0,0.2c0,0.1,0,0.2,0,0.2
		c0,0.1,0,0.2,0.1,0.2c0,0.1,0.1,0.1,0.1,0.2h-0.5c0,0-0.1-0.1-0.1-0.1c0-0.1,0-0.1,0-0.2c0-0.1,0-0.2,0-0.2c0-0.1,0-0.2,0-0.2
		c0-0.1,0-0.2,0-0.2c0-0.1,0-0.1-0.1-0.2c0-0.1-0.1-0.1-0.2-0.1c-0.1,0-0.2,0-0.3,0h-1.1v1.4h-0.4v-3.3H90z M90.1,50.1
		c0.1,0,0.2,0,0.2-0.1c0.1,0,0.1-0.1,0.2-0.2c0-0.1,0.1-0.2,0.1-0.3c0-0.2,0-0.3-0.1-0.4c-0.1-0.1-0.2-0.2-0.4-0.2h-1.1v1.2h0.9
		C89.9,50.1,90,50.1,90.1,50.1z"/>
</g>
<path class="st19" d="M117,15.8c0-1-0.8-1.8-1.8-1.8H16.1c-1,0-1.8,0.8-1.8,1.8v39.7c0,1,0.8,1.8,1.8,1.8h99.2c1,0,1.8-0.8,1.8-1.8
	V15.8z"/>
</svg>
