<?xml version="1.0" encoding="utf-8"?>
<!-- Generator: Adobe Illustrator 21.0.2, SVG Export Plug-In . SVG Version: 6.00 Build 0)  -->
<svg version="1.1" id="Layer_1" xmlns="http://www.w3.org/2000/svg" xmlns:xlink="http://www.w3.org/1999/xlink" x="0px" y="0px"
	 viewBox="0 0 131.3 71.3" style="enable-background:new 0 0 131.3 71.3;" xml:space="preserve">
<style type="text/css">
	.st0{fill:#05101E;}
	.st1{fill:none;stroke:#FF5A4F;stroke-miterlimit:10;}
	.st2{fill:#FF5A4F;}
	.st3{fill:none;stroke:#FF5A4F;stroke-linecap:round;stroke-linejoin:round;stroke-miterlimit:10;}
	.st4{opacity:0.2;fill:#FF5A4F;}
	.st5{fill:none;stroke:#FF5A4F;stroke-linecap:round;stroke-miterlimit:10;}
	.st6{fill:#F15B52;stroke:#F15B52;stroke-miterlimit:10;}
	.st7{fill:none;stroke:#F15B52;stroke-miterlimit:10;}
	.st8{fill:#05101E;stroke:#FF5A4F;stroke-miterlimit:10;}
	.st9{fill:none;stroke:#05101E;stroke-miterlimit:10;}
	.st10{fill:none;stroke:#F9CA03;stroke-miterlimit:10;}
	.st11{fill:#FFFFFF;}
	.st12{display:none;}
	.st13{stroke:#FF5A4F;stroke-linecap:round;stroke-miterlimit:10;}
	.st14{fill:none;stroke:#FF7726;stroke-miterlimit:10;}
	.st15{fill:none;stroke:#FF5A4F;stroke-linejoin:round;stroke-miterlimit:10;}
	.st16{opacity:0.3;fill:url(#SVGID_1_);}
	.st17{opacity:0.3;fill:url(#SVGID_2_);}
	.st18{opacity:0.3;}
	.st19{fill:none;stroke:#FFFFFF;stroke-miterlimit:10;}
	.st20{fill:none;stroke:#FFFFFF;stroke-miterlimit:10;stroke-dasharray:6.3259,6.3259;}
	.st21{fill:none;stroke:#FFFFFF;stroke-miterlimit:10;stroke-dasharray:6.1212,6.1212;}
	.st22{fill:none;stroke:#FFFFFF;stroke-miterlimit:10;stroke-dasharray:5.9605,5.9605;}
	.st23{fill:none;stroke:#FFFFFF;stroke-miterlimit:10;stroke-dasharray:5.9128,5.9128;}
	.st24{fill:none;stroke:#FFFFFF;stroke-miterlimit:10;stroke-dasharray:6.0345,6.0345;}
	.st25{fill:none;stroke:#FFFFFF;stroke-miterlimit:10;stroke-dasharray:4.4118,4.4118;}
	.st26{fill:none;stroke:#FFFFFF;stroke-miterlimit:10;stroke-dasharray:6;}
	.st27{fill:none;stroke:#FF5A4F;stroke-miterlimit:10;stroke-dasharray:6;}
	.st28{fill:#FF7726;}
	.st29{opacity:0.8;fill:#05101E;}
	.st30{fill:#05101E;stroke:#FF7726;stroke-miterlimit:10;}
	.st31{fill:#FF5A4F;stroke:#FF5A4F;stroke-miterlimit:10;}
	.st32{fill:#FF7726;stroke:#FF7726;stroke-miterlimit:10;}
	.st33{fill:none;stroke:#FFFFFF;stroke-linejoin:round;stroke-miterlimit:10;}
	.st34{fill:#05101E;stroke:#05101E;stroke-miterlimit:10;}
	.st35{fill:none;stroke:#FF7726;stroke-linejoin:round;stroke-miterlimit:10;}
	.st36{opacity:0.5;}
	.st37{fill-rule:evenodd;clip-rule:evenodd;fill:#FFFFFF;}
</style>
<g>
	<g>
		<polygon class="st37" points="24.3,19.1 31.2,19.1 18.6,36.2 11.7,36.2 		"/>
		<polygon class="st37" points="43.6,36.2 36.8,36.2 29.5,26.5 36.3,26.5 		"/>
		<polygon class="st37" points="22.3,36.2 29.2,36.2 36.3,26.5 29.5,26.5 		"/>
		<polygon class="st37" points="43.6,36.2 36.8,36.2 24.2,53.3 31.1,53.3 		"/>
		<polygon class="st37" points="47.4,36.2 50.9,41 41.8,53.3 34.9,53.3 		"/>
		<polygon class="st37" points="41.8,53.3 34.9,53.3 22.3,36.2 29.2,36.2 		"/>
		<polygon class="st37" points="24.2,53.3 31.1,53.3 18.6,36.2 11.7,36.2 		"/>
	</g>
	<g>
		<path class="st11" d="M57.1,22.9v0.7h-2.5v-4.5h0.7v3.8H57.1z"/>
		<path class="st11" d="M57.8,23.5v-4.5h0.7v4.5H57.8z"/>
		<path class="st11" d="M62.5,19.5l-0.3,0.7c-0.5-0.3-0.9-0.4-1.2-0.4c-0.4,0-0.7,0.2-0.7,0.5c0,1,2.3,0.5,2.3,2.1
			c0,0.8-0.7,1.3-1.6,1.3c-0.7,0-1.3-0.3-1.7-0.7l0.3-0.7c0.4,0.4,1,0.7,1.4,0.7c0.5,0,0.8-0.2,0.8-0.5c0-1-2.3-0.4-2.3-2
			c0-0.8,0.6-1.2,1.5-1.2C61.5,19,62.1,19.2,62.5,19.5z"/>
		<path class="st11" d="M64.9,19.8v3.8h-0.7v-3.8h-1.3v-0.7h3.4v0.7H64.9z"/>
		<path class="st11" d="M67.6,19.8V21h2.1v0.7h-2.1v1.2H70v0.7h-3.1v-4.5h3v0.7H67.6z"/>
		<path class="st11" d="M72.6,19.1c1.3,0,2.2,0.9,2.2,2.2c0,1.3-0.9,2.2-2.2,2.2h-1.7v-4.5H72.6z M71.5,22.9h1
			c0.8,0,1.5-0.6,1.5-1.6c0-0.9-0.6-1.6-1.5-1.6h-1V22.9z"/>
		<path class="st11" d="M81.2,21.3c0,1.3-1,2.3-2.2,2.3c-1.3,0-2.2-1-2.2-2.3c0-1.3,1-2.3,2.2-2.3C80.2,19.1,81.2,20,81.2,21.3z
			 M77.4,21.3c0,0.9,0.7,1.6,1.5,1.6c0.8,0,1.5-0.7,1.5-1.6c0-0.9-0.7-1.6-1.5-1.6C78.1,19.7,77.4,20.4,77.4,21.3z"/>
		<path class="st11" d="M84.9,23.5l-2.3-3.2v3.2H82v-4.5h0.7l2.3,3.2v-3.2h0.7v4.5H84.9z"/>
	</g>
	<g>
		<g>
			<polygon class="st11" points="58.8,49.8 58,52.6 57.2,49.8 56.7,49.8 55.9,52.6 55.1,49.8 54.5,49.8 55.6,53.3 56.2,53.3 
				57,50.6 57.7,53.3 58.3,53.3 59.4,49.8 			"/>
			<path class="st11" d="M60.6,49.8l-1.4,3.4h0.6l0.3-0.8h1.6l0.3,0.8h0.6l-1.4-3.4H60.6z M60.2,52l0.6-1.5l0.6,1.5H60.2z"/>
			<path class="st11" d="M65.6,51c0-0.7-0.5-1.2-1.3-1.2H63v3.4h0.6v-1h0.8c0.1,0,0.1,0,0.1,0l0.6,1h0.6L65,52.1
				C65.4,51.9,65.6,51.6,65.6,51z M64.3,51.7h-0.8v-1.4h0.8c0.5,0,0.8,0.2,0.8,0.7C65.1,51.5,64.8,51.7,64.3,51.7z"/>
			<path class="st11" d="M66.9,50.7c0-0.2,0.2-0.4,0.5-0.4c0.2,0,0.6,0.1,1,0.3l0.2-0.5c-0.3-0.2-0.7-0.4-1.1-0.4
				c-0.7,0-1.2,0.4-1.2,1c0,1.2,1.8,0.8,1.8,1.6c0,0.3-0.2,0.4-0.6,0.4c-0.4,0-0.8-0.2-1.1-0.5l-0.2,0.5c0.3,0.3,0.8,0.5,1.3,0.5
				c0.7,0,1.2-0.4,1.2-1C68.6,51.1,66.9,51.5,66.9,50.7z"/>
			<path class="st11" d="M70.3,49.8l-1.4,3.4h0.6l0.3-0.8h1.6l0.3,0.8h0.6l-1.4-3.4H70.3z M69.9,52l0.6-1.5l0.6,1.5H69.9z"/>
			<polygon class="st11" points="75.5,52.6 74.8,49.8 74.2,49.8 73.4,52.6 72.6,49.8 72,49.8 73.1,53.3 73.7,53.3 74.5,50.6 
				75.2,53.3 75.8,53.3 76.9,49.8 76.3,49.8 			"/>
			<path class="st11" d="M79.1,50.7c0-0.2,0.2-0.4,0.5-0.4c0.2,0,0.6,0.1,1,0.3l0.2-0.5c-0.3-0.2-0.7-0.4-1.1-0.4
				c-0.7,0-1.2,0.4-1.2,1c0,1.2,1.8,0.8,1.8,1.6c0,0.3-0.2,0.4-0.6,0.4c-0.4,0-0.8-0.2-1.1-0.5l-0.2,0.5c0.3,0.3,0.8,0.5,1.3,0.5
				c0.7,0,1.2-0.4,1.2-1C80.8,51.1,79.1,51.5,79.1,50.7z"/>
			<polygon class="st11" points="81.1,50.4 82.1,50.4 82.1,53.3 82.7,53.3 82.7,50.4 83.7,50.4 83.7,49.8 81.1,49.8 			"/>
			<path class="st11" d="M85.5,49.8c-1,0-1.7,0.7-1.7,1.7c0,1,0.8,1.7,1.7,1.7c1,0,1.7-0.8,1.7-1.7C87.2,50.6,86.4,49.8,85.5,49.8z
				 M85.5,52.8c-0.6,0-1.2-0.5-1.2-1.2c0-0.7,0.5-1.2,1.2-1.2c0.6,0,1.2,0.5,1.2,1.2C86.6,52.2,86.1,52.8,85.5,52.8z"/>
			<path class="st11" d="M89.1,52.8c-0.7,0-1.2-0.5-1.2-1.2c0-0.7,0.5-1.2,1.2-1.2c0.3,0,0.7,0.2,0.9,0.4l0.3-0.4
				c-0.3-0.3-0.8-0.5-1.2-0.5c-1,0-1.7,0.8-1.7,1.7c0,1,0.7,1.8,1.7,1.8c0.5,0,0.9-0.2,1.3-0.6L90,52.3
				C89.8,52.6,89.4,52.8,89.1,52.8z"/>
			<polygon class="st11" points="93.7,49.8 93,49.8 91.4,51.6 91.4,49.8 90.9,49.8 90.9,53.3 91.4,53.3 91.4,52.4 92,51.8 
				93.1,53.3 93.7,53.3 92.4,51.3 			"/>
			<polygon class="st11" points="96,51.8 97.6,51.8 97.6,51.3 96,51.3 96,50.4 97.8,50.4 97.8,49.8 95.4,49.8 95.4,53.3 97.8,53.3 
				97.8,52.8 96,52.8 			"/>
			<polygon class="st11" points="101.1,49.8 100.5,49.8 99.7,51 98.9,49.8 98.2,49.8 99.3,51.5 98.1,53.3 98.8,53.3 99.7,52 
				100.5,53.3 101.2,53.3 100,51.5 			"/>
			<path class="st11" d="M103.1,52.8c-0.7,0-1.2-0.5-1.2-1.2c0-0.7,0.5-1.2,1.2-1.2c0.3,0,0.7,0.2,0.9,0.4l0.3-0.4
				c-0.3-0.3-0.8-0.5-1.2-0.5c-1,0-1.7,0.8-1.7,1.7c0,1,0.7,1.8,1.7,1.8c0.5,0,0.9-0.2,1.3-0.6l-0.3-0.4
				C103.8,52.6,103.4,52.8,103.1,52.8z"/>
			<polygon class="st11" points="107.2,51.3 105.5,51.3 105.5,49.8 104.9,49.8 104.9,53.3 105.5,53.3 105.5,51.8 107.2,51.8 
				107.2,53.3 107.7,53.3 107.7,49.8 107.2,49.8 			"/>
			<path class="st11" d="M109.6,49.8l-1.4,3.4h0.6l0.3-0.8h1.6l0.3,0.8h0.6l-1.4-3.4H109.6z M109.3,52l0.6-1.5l0.6,1.5H109.3z"/>
			<polygon class="st11" points="114.3,52.3 112.6,49.8 112,49.8 112,53.3 112.6,53.3 112.6,50.8 114.3,53.3 114.9,53.3 114.9,49.8 
				114.3,49.8 			"/>
			<path class="st11" d="M117.2,50.3c0.3,0,0.7,0.1,0.9,0.4l0.3-0.4c-0.3-0.3-0.8-0.5-1.3-0.5c-1,0-1.8,0.8-1.8,1.7
				c0,1,0.8,1.7,1.7,1.7c0.4,0,0.9-0.2,1.3-0.4v-1.3H118v1c-0.2,0.1-0.5,0.2-0.8,0.2c-0.7,0-1.2-0.5-1.2-1.2
				C116,50.9,116.5,50.3,117.2,50.3z"/>
			<polygon class="st11" points="119.8,52.8 119.8,51.8 121.4,51.8 121.4,51.3 119.8,51.3 119.8,50.4 121.6,50.4 121.6,49.8 
				119.2,49.8 119.2,53.3 121.6,53.3 121.6,52.8 			"/>
		</g>
		<g>
			<path class="st37" d="M84.2,26.5h-8.3v20h4.8v-5.6h3.4c4.9,0,7.6-2.7,7.6-7.4C91.8,29,89,26.5,84.2,26.5z M83.9,36.9h-3.2v-6.4
				h3.2c2.1,0,3.3,1.1,3.3,3.1C87.3,35.8,86,36.9,83.9,36.9z"/>
			<polygon class="st37" points="116.7,26.5 113,41.2 109.3,26.5 104.6,26.5 101,41.2 97.2,26.5 92.1,26.5 98.3,46.5 103.3,46.5 
				106.9,32.7 110.4,46.5 115.4,46.5 121.6,26.5 			"/>
			<path class="st37" d="M65,30.6c1.8,0,3.7,0.8,5.1,2.2l2.7-3.5c-2-1.8-4.9-3-7.8-3c-6,0-10.5,4.4-10.5,10.2
				c0,5.8,4.4,10.2,10.1,10.2c2.7,0,5.9-1.1,7.9-2.6v-4.1v-3.7h-4.2h-2.7v3.7h2.7v1.5c-1.1,0.6-2.4,1-3.4,1c-3.1,0-5.6-2.6-5.6-6
				C59.5,33.2,61.8,30.6,65,30.6z"/>
		</g>
	</g>
</g>
</svg>
