<svg id="Layer_1" data-name="Layer 1" xmlns="http://www.w3.org/2000/svg" width="183.61" height="92.44" viewBox="0 0 183.61 92.44">
  <style>
    * {
      transform-origin: 50% 50%;
    }

    .line1, .line2, .line3, .line4 {
      animation: span 2800ms linear infinite both;
    }

    .line2 {
      animation-delay: 0.08s;
    }

    .line3 {
      animation-delay: 0.12s;
    }

    .line4 {
      animation-delay: 0.1s;
    }

    @keyframes span {
      0% {
        transform: scaleX(2) translateX(-100px);
      }
      5% {
        transform: scaleX(1) translateX(-10px);
      }
      8% {
        transform: scaleX(1) translateX(0);
      }
      46% {
        transform: scaleX(1)
      }
      59% {
        transform: scaleX(1);
      }
      60% {
        transform: scaleX(20) translateX(-10px);
      }
    }

  </style>
  <path d="M134.83,25.8h16a3.83,3.83,0,0,1,3,1.41l18.42,22.65a3,3,0,0,1,.67,1.9V63.7" fill="none" stroke="#ff5a4f" stroke-linecap="round"
    stroke-miterlimit="10" />
  <path d="M149.66,33.22V49.44A1.33,1.33,0,0,0,151,50.77h13.27a1.33,1.33,0,0,0,1-2.17L152,32.38A1.33,1.33,0,0,0,149.66,33.22Z"
    fill="none" stroke="#ff5a4f" stroke-miterlimit="10" />
  <rect x="139.45" y="31.89" width="4.82" height="18.88" rx="2" ry="2" fill="none" stroke="#ff5a4f" stroke-miterlimit="10"
  />
  <line x1="161.39" y1="67.84" x2="172.92" y2="67.84" fill="none" stroke="#ff5a4f" stroke-linecap="round" stroke-miterlimit="10"
  />
  <line x1="98.39" y1="67.84" x2="145.94" y2="67.84" fill="none" stroke="#ff5a4f" stroke-linecap="round" stroke-miterlimit="10"
  />
  <line x1="78.22" y1="67.84" x2="82.39" y2="67.84" fill="none" stroke="#ff5a4f" stroke-linecap="round" stroke-miterlimit="10"
  />
  <line x1="54" y1="67.84" x2="62.39" y2="67.84" fill="none" stroke="#ff5a4f" stroke-linecap="round" stroke-miterlimit="10"
  />
  <g>
    <path d="M153.39,63.14a8,8,0,1,1-8,8,8,8,0,0,1,8-8m0-1a9,9,0,1,0,9,9,9,9,0,0,0-9-9Z" fill="#ff5a4f" />
    <path d="M153.39,69.07a2.07,2.07,0,1,1-2.07,2.07,2.07,2.07,0,0,1,2.07-2.07m0-1a3.07,3.07,0,1,0,3.07,3.07,3.07,3.07,0,0,0-3.07-3.07Z"
      fill="#ff5a4f" />
    <animateTransform attributeName="transform" attributeType="XML" dur="2.8s" type="translate" repeatCount="indefinite" values="0 0; 0 0; 0 4; 0 0; 0 0"
      keyTimes="0 ; 0.28; 0.3 ; 0.33; 1" />
  </g>
  <g>
    <path d="M90.39,63.14a8,8,0,1,1-8,8,8,8,0,0,1,8-8m0-1a9,9,0,1,0,9,9,9,9,0,0,0-9-9Z" fill="#ff5a4f" />
    <path d="M90.39,69.07a2.07,2.07,0,1,1-2.07,2.07,2.07,2.07,0,0,1,2.07-2.07m0-1a3.07,3.07,0,1,0,3.07,3.07,3.07,3.07,0,0,0-3.07-3.07Z"
      fill="#ff5a4f" />
    <animateTransform attributeName="transform" attributeType="XML" dur="2.8s" type="translate" repeatCount="indefinite" values="0 0; 0 0; 0 4; 0 0; 0 0"
      keyTimes="0 ; 0.30; 0.32 ; 0.33; 1" />
  </g>
  <g>
    <path d="M70.39,63.14a8,8,0,1,1-8,8,8,8,0,0,1,8-8m0-1a9,9,0,1,0,9,9,9,9,0,0,0-9-9Z" fill="#ff5a4f" />
    <path d="M70.39,69.07a2.07,2.07,0,1,1-2.07,2.07,2.07,2.07,0,0,1,2.07-2.07m0-1a3.07,3.07,0,1,0,3.07,3.07,3.07,3.07,0,0,0-3.07-3.07Z"
      fill="#ff5a4f" />
    <animateTransform attributeName="transform" attributeType="XML" dur="2.8s" type="translate" repeatCount="indefinite" values="0 0; 0 0; 0 4; 0 0; 0 0"
      keyTimes="0 ; 0.27; 0.29 ; 0.33; 1" />
  </g>

  <line x1="51.08" y1="67.84" x2="43.58" y2="67.84" fill="none" stroke="#ff5a4f" stroke-linecap="round" stroke-linejoin="round"
  />
  <line x1="40.33" y1="67.7" x2="38.33" y2="67.7" fill="none" stroke="#ff5a4f" stroke-linecap="round" stroke-linejoin="round"
  />
  <line x1="172.92" y1="65.22" x2="172.92" y2="66.11" fill="none" stroke="#ff5a4f" stroke-linecap="round" stroke-miterlimit="10"
  />
  <line x1="134.61" y1="26.33" x2="134.61" y2="67.07" fill="none" stroke="#ff5a4f" stroke-linecap="round" stroke-miterlimit="10"
  />
  <g fill="none" stroke="#ff5a4f" stroke-linecap="round" stroke-miterlimit="10">
    <polyline points="62.39 19.76 130.61 19.76 130.61 63.89 94.98 63.89" />


    <g class="line2">
      <line x1="57.39" y1="19.76" x2="46.67" y2="19.76" />
      <line x1="41.33" y1="19.76" x2="38.23" y2="19.76" />
    </g>
    <g class="line3">
      <line x1="29.28" y1="63.89" x2="22.83" y2="63.89" />
      <line x1="20.03" y1="63.89" x2="17.61" y2="63.89" />
    </g>
    <line x1="65.86" y1="63.89" x2="32.25" y2="63.89" />
    <line x1="85.61" y1="63.89" x2="74.98" y2="63.89" />
    <g class="line4">
      <line x1="30.23" y1="49.36" x2="24.33" y2="49.36" />
      <line x1="33.23" y1="49.36" x2="36.33" y2="49.36" />
      <line x1="20.23" y1="49.36" x2="9.83" y2="49.36" />
    </g>
    <g class="line1">
      <line x1="49.67" y1="34.36" x2="45.39" y2="34.36" />
      <line x1="59.17" y1="34.36" x2="52.39" y2="34.36" />
      <line x1="41.67" y1="34.36" x2="40" y2="34.36" />
    </g>
    <line x1="21.67" y1="30.36" x2="20" y2="30.36" />
    <line x1="31.25" y1="30.36" x2="28.2" y2="30.36" />
    <animateTransform attributeName="transform" attributeType="XML" dur="2.8s" type="translate" repeatCount="indefinite" values="0 0; 0 0; 2 0; 0 0; 0 0"
      keyTimes="0 ; 0.08; 0.1 ; 0.15; 1" />
  </g>
</svg>
