<?xml version="1.0" encoding="utf-8"?>
<!-- Generator: Adobe Illustrator 21.0.2, SVG Export Plug-In . SVG Version: 6.00 Build 0)  -->
<svg version="1.1" id="Layer_1" xmlns="http://www.w3.org/2000/svg" xmlns:xlink="http://www.w3.org/1999/xlink" x="0px" y="0px"
	 viewBox="0 0 131.3 71.3" style="enable-background:new 0 0 131.3 71.3;" xml:space="preserve">
<style type="text/css">
	.st0{fill:#05101E;}
	.st1{fill:none;stroke:#FF5A4F;stroke-miterlimit:10;}
	.st2{fill:#FF5A4F;}
	.st3{fill:none;stroke:#FF5A4F;stroke-linecap:round;stroke-linejoin:round;stroke-miterlimit:10;}
	.st4{opacity:0.2;fill:#FF5A4F;}
	.st5{fill:none;stroke:#FF5A4F;stroke-linecap:round;stroke-miterlimit:10;}
	.st6{fill:#F15B52;stroke:#F15B52;stroke-miterlimit:10;}
	.st7{fill:none;stroke:#F15B52;stroke-miterlimit:10;}
	.st8{fill:#05101E;stroke:#FF5A4F;stroke-miterlimit:10;}
	.st9{fill:none;stroke:#05101E;stroke-miterlimit:10;}
	.st10{fill:none;stroke:#F9CA03;stroke-miterlimit:10;}
	.st11{fill:#FFFFFF;}
	.st12{display:none;}
	.st13{stroke:#FF5A4F;stroke-linecap:round;stroke-miterlimit:10;}
	.st14{fill:none;stroke:#FF7726;stroke-miterlimit:10;}
	.st15{fill:none;stroke:#FF5A4F;stroke-linejoin:round;stroke-miterlimit:10;}
	.st16{opacity:0.3;fill:url(#SVGID_1_);}
	.st17{opacity:0.3;fill:url(#SVGID_2_);}
	.st18{opacity:0.3;}
	.st19{fill:none;stroke:#FFFFFF;stroke-miterlimit:10;}
	.st20{fill:none;stroke:#FFFFFF;stroke-miterlimit:10;stroke-dasharray:6.3259,6.3259;}
	.st21{fill:none;stroke:#FFFFFF;stroke-miterlimit:10;stroke-dasharray:6.1212,6.1212;}
	.st22{fill:none;stroke:#FFFFFF;stroke-miterlimit:10;stroke-dasharray:5.9605,5.9605;}
	.st23{fill:none;stroke:#FFFFFF;stroke-miterlimit:10;stroke-dasharray:5.9128,5.9128;}
	.st24{fill:none;stroke:#FFFFFF;stroke-miterlimit:10;stroke-dasharray:6.0345,6.0345;}
	.st25{fill:none;stroke:#FFFFFF;stroke-miterlimit:10;stroke-dasharray:4.4118,4.4118;}
	.st26{fill:none;stroke:#FFFFFF;stroke-miterlimit:10;stroke-dasharray:6;}
	.st27{fill:none;stroke:#FF5A4F;stroke-miterlimit:10;stroke-dasharray:6;}
	.st28{fill:#FF7726;}
	.st29{opacity:0.8;fill:#05101E;}
	.st30{fill:#05101E;stroke:#FF7726;stroke-miterlimit:10;}
	.st31{fill:#FF5A4F;stroke:#FF5A4F;stroke-miterlimit:10;}
	.st32{fill:#FF7726;stroke:#FF7726;stroke-miterlimit:10;}
	.st33{fill:none;stroke:#FFFFFF;stroke-linejoin:round;stroke-miterlimit:10;}
	.st34{fill:#05101E;stroke:#05101E;stroke-miterlimit:10;}
	.st35{fill:none;stroke:#FF7726;stroke-linejoin:round;stroke-miterlimit:10;}
	.st36{opacity:0.5;}
	.st37{fill-rule:evenodd;clip-rule:evenodd;fill:#FFFFFF;}
</style>
<g>
	<path class="st11" d="M31.7,40.2h-2.2V27.6c0-1,0.1-2.2,0.2-3.6h-0.1c-0.2,0.8-0.4,1.4-0.6,1.8l-6.5,14.3h-1.1l-6.6-14.2
		c-0.2-0.4-0.4-1-0.6-1.9h-0.1c0.1,0.7,0.1,2,0.1,3.6v12.5h-2.2V21.5h3l5.9,13c0.4,1,0.7,1.7,0.9,2.2h0.1c0.4-1.2,0.8-2,0.9-2.3
		l6-13h2.8V40.2"/>
	<path class="st11" d="M37.9,40.2h-2.2V26.8h2.2V40.2 M38.3,22.1c0,0.4-0.1,0.7-0.4,1c-0.3,0.3-0.6,0.4-1,0.4c-0.4,0-0.7-0.1-1-0.4
		c-0.3-0.3-0.4-0.6-0.4-1c0-0.4,0.1-0.7,0.4-1c0.3-0.3,0.6-0.4,1-0.4c0.4,0,0.8,0.1,1,0.4C38.1,21.3,38.3,21.7,38.3,22.1"/>
	<path class="st11" d="M50.9,39.6c-1.1,0.6-2.3,0.9-3.8,0.9c-1.3,0-2.4-0.3-3.4-0.8c-1-0.6-1.8-1.4-2.3-2.4c-0.6-1-0.8-2.2-0.8-3.5
		c0-2.2,0.6-4,1.9-5.3c1.3-1.3,3-2,5.2-2c1.2,0,2.3,0.2,3.2,0.7v2.2c-1-0.7-2.1-1-3.3-1c-1.4,0-2.6,0.5-3.5,1.5
		c-0.9,1-1.3,2.3-1.3,3.8c0,1.6,0.4,2.8,1.3,3.7c0.8,0.9,2,1.4,3.4,1.4c1.2,0,2.3-0.4,3.4-1.1V39.6"/>
	<path class="st11" d="M60.7,29c-0.4-0.3-1-0.4-1.7-0.4c-1,0-1.8,0.4-2.4,1.3c-0.6,0.9-0.9,2-0.9,3.5v6.8h-2.2V26.8h2.2v2.7h0.1
		c0.3-0.9,0.8-1.6,1.4-2.2c0.6-0.5,1.4-0.8,2.2-0.8c0.6,0,1,0.1,1.3,0.2V29"/>
	<path class="st11" d="M72.3,33.5c0-1.7-0.4-3-1.1-3.9c-0.8-0.9-1.9-1.3-3.3-1.3c-1.4,0-2.5,0.5-3.3,1.4c-0.8,0.9-1.2,2.2-1.2,3.9
		c0,1.6,0.4,2.8,1.2,3.7c0.8,0.9,1.9,1.3,3.3,1.3c1.4,0,2.5-0.4,3.3-1.3C71.9,36.5,72.3,35.2,72.3,33.5 M74.5,33.4
		c0,2.1-0.6,3.8-1.9,5.1c-1.2,1.3-2.9,1.9-5,1.9c-2,0-3.6-0.6-4.9-1.9c-1.2-1.3-1.8-2.9-1.8-5c0-2.2,0.6-3.9,1.9-5.2
		c1.2-1.3,3-1.9,5.1-1.9c2,0,3.6,0.6,4.8,1.9C73.9,29.6,74.5,31.3,74.5,33.4"/>
	<path class="st11" d="M84.7,36.6c0,1.2-0.5,2.1-1.4,2.8c-0.9,0.7-2.1,1.1-3.6,1.1c-1.3,0-2.4-0.3-3.4-0.8v-2.3
		c1.1,0.9,2.3,1.3,3.6,1.3c1.7,0,2.6-0.6,2.6-1.9c0-0.5-0.2-0.9-0.5-1.2c-0.3-0.3-1.1-0.7-2.3-1.3c-1.2-0.5-2.1-1-2.6-1.6
		c-0.5-0.6-0.8-1.3-0.8-2.3c0-1.1,0.5-2,1.4-2.8c0.9-0.7,2.1-1.1,3.5-1.1c1.1,0,2.1,0.2,2.9,0.6v2.1c-0.9-0.6-1.9-1-3.1-1
		c-0.7,0-1.3,0.2-1.7,0.5c-0.4,0.3-0.7,0.8-0.7,1.3c0,0.6,0.2,1,0.5,1.4c0.3,0.3,1,0.7,2.1,1.1c1.3,0.5,2.2,1.1,2.7,1.7
		C84.4,35,84.7,35.7,84.7,36.6"/>
	<path class="st11" d="M97.4,33.5c0-1.7-0.4-3-1.1-3.9c-0.8-0.9-1.9-1.3-3.3-1.3c-1.4,0-2.5,0.5-3.3,1.4c-0.8,0.9-1.2,2.2-1.2,3.9
		c0,1.6,0.4,2.8,1.2,3.7c0.8,0.9,1.9,1.3,3.3,1.3c1.4,0,2.5-0.4,3.3-1.3C97.1,36.5,97.4,35.2,97.4,33.5 M99.7,33.4
		c0,2.1-0.6,3.8-1.9,5.1c-1.2,1.3-2.9,1.9-5,1.9c-2,0-3.6-0.6-4.9-1.9c-1.2-1.3-1.8-2.9-1.8-5c0-2.2,0.6-3.9,1.9-5.2
		c1.2-1.3,3-1.9,5.1-1.9c2,0,3.6,0.6,4.8,1.9C99.1,29.6,99.7,31.3,99.7,33.4"/>
	<path class="st11" d="M108.7,22.3c-0.4-0.2-0.9-0.4-1.5-0.4c-1.5,0-2.3,0.9-2.3,2.8v2.1h3.2v1.8h-3.2v11.5h-2.2V28.6h-2.3v-1.8h2.3
		v-2.2c0-1.4,0.4-2.4,1.2-3.3c0.8-0.8,1.9-1.2,3.1-1.2c0.7,0,1.2,0.1,1.6,0.2V22.3"/>
	<path class="st11" d="M116.7,40c-0.5,0.3-1.2,0.4-2.1,0.4c-2.4,0-3.6-1.3-3.6-3.9v-7.9h-2.4v-1.8h2.4v-3.3l2.2-0.7v3.9h3.5v1.8
		h-3.5v7.5c0,0.9,0.2,1.5,0.5,1.9c0.3,0.4,0.8,0.6,1.6,0.6c0.5,0,1-0.1,1.4-0.4V40"/>
	<path class="st11" d="M44,53.3c0-2.5-1.5-3.7-4.5-3.7h-2.6v7.7h2.4c1.5,0,2.7-0.3,3.5-1C43.6,55.5,44,54.6,44,53.3 M46.4,53.2
		c0,1.8-0.6,3.3-1.9,4.4c-1.3,1.1-3,1.7-5,1.7h-2.5v7.1h-2.2V47.6h5.3c2.1,0,3.6,0.5,4.8,1.5C45.8,50,46.4,51.4,46.4,53.2"/>
	<path class="st11" d="M55.7,59.5L52.3,60c-1.1,0.2-1.9,0.4-2.4,0.8c-0.5,0.4-0.7,1-0.7,1.8c0,0.7,0.2,1.2,0.7,1.6
		c0.5,0.4,1.1,0.6,1.9,0.6c1.1,0,2-0.4,2.7-1.1c0.7-0.7,1.1-1.7,1.1-2.8V59.5 M57.9,66.3h-2.2v-2.1h-0.1c-1,1.6-2.4,2.4-4.2,2.4
		c-1.3,0-2.4-0.3-3.2-1c-0.8-0.7-1.2-1.6-1.2-2.8c0-2.5,1.5-3.9,4.5-4.3l4.1-0.6c0-2.3-0.9-3.4-2.8-3.4c-1.7,0-3.1,0.5-4.5,1.6v-2.2
		c0.4-0.3,1.1-0.6,2.1-0.9c1-0.3,1.8-0.4,2.6-0.4c3.2,0,4.8,1.7,4.8,5V66.3"/>
	<path class="st11" d="M68.5,55.1c-0.4-0.3-1-0.4-1.7-0.4c-1,0-1.8,0.4-2.4,1.3c-0.6,0.9-0.9,2-0.9,3.5v6.8h-2.2V52.9h2.2v2.7h0.1
		c0.3-0.9,0.8-1.6,1.4-2.2c0.6-0.5,1.4-0.8,2.2-0.8c0.6,0,1,0.1,1.3,0.2V55.1"/>
	<path class="st11" d="M78.7,66.1c-0.5,0.3-1.2,0.4-2.1,0.4c-2.4,0-3.6-1.3-3.6-3.9v-7.9h-2.4v-1.8h2.4v-3.3l2.2-0.7v3.9h3.5v1.8
		h-3.5v7.5c0,0.9,0.2,1.5,0.5,1.9c0.3,0.4,0.8,0.6,1.6,0.6c0.5,0,1-0.1,1.4-0.4V66.1"/>
	<path class="st11" d="M93.2,66.3H91v-7.6c0-2.8-1.1-4.2-3.2-4.2c-1.1,0-2,0.4-2.7,1.2c-0.7,0.8-1.1,1.8-1.1,3v7.6h-2.2V52.9H84v2.2
		H84c1-1.7,2.5-2.5,4.5-2.5c1.5,0,2.7,0.5,3.4,1.4c0.8,1,1.2,2.3,1.2,4.1V66.3"/>
	<path class="st11" d="M105.3,58.3c0-1.2-0.3-2.2-0.9-2.9c-0.6-0.7-1.4-1-2.5-1c-1,0-1.9,0.4-2.6,1.1c-0.7,0.7-1.2,1.7-1.4,2.8
		H105.3 M107.5,60.1h-9.7c0,1.5,0.4,2.6,1.2,3.4c0.8,0.8,1.9,1.2,3.2,1.2c1.6,0,3-0.5,4.2-1.5v2c-1.2,0.9-2.8,1.3-4.8,1.3
		c-2,0-3.5-0.6-4.6-1.8c-1.1-1.2-1.6-2.9-1.6-5.1c0-1.3,0.3-2.5,0.8-3.6c0.5-1.1,1.3-1.9,2.3-2.5c1-0.6,2-0.9,3.2-0.9
		c1.8,0,3.2,0.6,4.2,1.7c1,1.1,1.5,2.7,1.5,4.7V60.1"/>
	<path class="st11" d="M117.2,55.1c-0.4-0.3-1-0.4-1.7-0.4c-1,0-1.8,0.4-2.4,1.3c-0.6,0.9-0.9,2-0.9,3.5v6.8h-2.2V52.9h2.2v2.7h0.1
		c0.3-0.9,0.8-1.6,1.4-2.2c0.6-0.5,1.4-0.8,2.2-0.8c0.6,0,1,0.1,1.3,0.2V55.1"/>
	<path class="st11" d="M20,13.7c-1,0.5-2,0.8-3.2,0.8c-0.9,0-1.7-0.2-2.4-0.6c-0.7-0.4-1.2-1-1.6-1.7c-0.4-0.7-0.6-1.5-0.6-2.4
		c0-1.4,0.5-2.6,1.4-3.5c0.9-0.9,2.1-1.4,3.6-1.4c1,0,1.9,0.2,2.6,0.5v1.2C19,6.1,18.1,5.9,17,5.9c-0.7,0-1.3,0.2-1.9,0.5
		c-0.6,0.3-1,0.8-1.3,1.4c-0.3,0.6-0.5,1.3-0.5,2c0,1.2,0.3,2.1,1,2.8c0.6,0.7,1.5,1,2.6,1c0.7,0,1.4-0.1,1.9-0.4v-2.6h-2.1v-1H20
		V13.7"/>
	<path class="st11" d="M27.5,11.1c0-0.8-0.2-1.5-0.6-1.9c-0.4-0.4-0.9-0.7-1.6-0.7c-0.7,0-1.3,0.2-1.7,0.7c-0.4,0.5-0.6,1.1-0.6,1.9
		c0,0.8,0.2,1.4,0.6,1.9c0.4,0.4,1,0.7,1.7,0.7c0.7,0,1.3-0.2,1.6-0.7C27.3,12.5,27.5,11.9,27.5,11.1 M28.7,11
		c0,1.1-0.3,1.9-0.9,2.6c-0.6,0.6-1.4,1-2.5,1c-1,0-1.8-0.3-2.4-0.9c-0.6-0.6-0.9-1.5-0.9-2.5c0-1.1,0.3-2,0.9-2.6
		c0.6-0.6,1.5-1,2.6-1c1,0,1.8,0.3,2.4,0.9C28.4,9.1,28.7,9.9,28.7,11"/>
	<polyline class="st11" points="31.8,14.4 30.7,14.4 30.7,4.5 31.8,4.5 31.8,14.4 	"/>
	<path class="st11" d="M39.1,11.4v-1c0-0.6-0.2-1-0.6-1.4c-0.4-0.4-0.8-0.5-1.4-0.5c-0.7,0-1.2,0.2-1.6,0.7c-0.4,0.5-0.6,1.1-0.6,2
		c0,0.8,0.2,1.4,0.5,1.8c0.4,0.4,0.9,0.7,1.5,0.7c0.6,0,1.1-0.2,1.5-0.6C38.9,12.6,39.1,12,39.1,11.4 M40.2,14.4h-1.1v-1.1h0
		c-0.5,0.9-1.3,1.3-2.4,1.3c-0.9,0-1.6-0.3-2.1-0.9c-0.5-0.6-0.8-1.4-0.8-2.4c0-1.1,0.3-2,0.9-2.7c0.6-0.7,1.3-1,2.3-1
		c0.9,0,1.6,0.4,2.1,1.1h0V4.5h1.1V14.4"/>
</g>
</svg>
