<?xml version="1.0" encoding="utf-8"?>
<!-- Generator: Adobe Illustrator 21.0.2, SVG Export Plug-In . SVG Version: 6.00 Build 0)  -->
<svg version="1.1" id="Layer_1" xmlns="http://www.w3.org/2000/svg" xmlns:xlink="http://www.w3.org/1999/xlink" x="0px" y="0px"
	 viewBox="0 0 131.3 71.3" style="enable-background:new 0 0 131.3 71.3;" xml:space="preserve">
<style type="text/css">
	.st0{fill:#05101E;}
	.st1{fill:none;stroke:#FF5A4F;stroke-miterlimit:10;}
	.st2{fill:#FF5A4F;}
	.st3{fill:none;stroke:#FF5A4F;stroke-linecap:round;stroke-linejoin:round;stroke-miterlimit:10;}
	.st4{opacity:0.2;fill:#FF5A4F;}
	.st5{fill:none;stroke:#FF5A4F;stroke-linecap:round;stroke-miterlimit:10;}
	.st6{fill:#F15B52;stroke:#F15B52;stroke-miterlimit:10;}
	.st7{fill:none;stroke:#F15B52;stroke-miterlimit:10;}
	.st8{fill:#05101E;stroke:#FF5A4F;stroke-miterlimit:10;}
	.st9{fill:none;stroke:#05101E;stroke-miterlimit:10;}
	.st10{fill:none;stroke:#F9CA03;stroke-miterlimit:10;}
	.st11{fill:#FFFFFF;}
	.st12{display:none;}
	.st13{stroke:#FF5A4F;stroke-linecap:round;stroke-miterlimit:10;}
	.st14{fill:none;stroke:#FF7726;stroke-miterlimit:10;}
	.st15{fill:none;stroke:#FF5A4F;stroke-linejoin:round;stroke-miterlimit:10;}
	.st16{opacity:0.3;fill:url(#SVGID_1_);}
	.st17{opacity:0.3;fill:url(#SVGID_2_);}
	.st18{opacity:0.3;}
	.st19{fill:none;stroke:#FFFFFF;stroke-miterlimit:10;}
	.st20{fill:none;stroke:#FFFFFF;stroke-miterlimit:10;stroke-dasharray:6.3259,6.3259;}
	.st21{fill:none;stroke:#FFFFFF;stroke-miterlimit:10;stroke-dasharray:6.1212,6.1212;}
	.st22{fill:none;stroke:#FFFFFF;stroke-miterlimit:10;stroke-dasharray:5.9605,5.9605;}
	.st23{fill:none;stroke:#FFFFFF;stroke-miterlimit:10;stroke-dasharray:5.9128,5.9128;}
	.st24{fill:none;stroke:#FFFFFF;stroke-miterlimit:10;stroke-dasharray:6.0345,6.0345;}
	.st25{fill:none;stroke:#FFFFFF;stroke-miterlimit:10;stroke-dasharray:4.4118,4.4118;}
	.st26{fill:none;stroke:#FFFFFF;stroke-miterlimit:10;stroke-dasharray:6;}
	.st27{fill:none;stroke:#FF5A4F;stroke-miterlimit:10;stroke-dasharray:6;}
	.st28{fill:#FF7726;}
	.st29{opacity:0.8;fill:#05101E;}
	.st30{fill:#05101E;stroke:#FF7726;stroke-miterlimit:10;}
	.st31{fill:#FF5A4F;stroke:#FF5A4F;stroke-miterlimit:10;}
	.st32{fill:#FF7726;stroke:#FF7726;stroke-miterlimit:10;}
	.st33{fill:none;stroke:#FFFFFF;stroke-linejoin:round;stroke-miterlimit:10;}
	.st34{fill:#05101E;stroke:#05101E;stroke-miterlimit:10;}
	.st35{fill:none;stroke:#FF7726;stroke-linejoin:round;stroke-miterlimit:10;}
	.st36{opacity:0.5;}
	.st37{fill-rule:evenodd;clip-rule:evenodd;fill:#FFFFFF;}
</style>
<g>
	<path class="st11" d="M18.9,37.8h-1.4v-7.9c0-0.6,0-1.4,0.1-2.3h0c-0.1,0.5-0.2,0.9-0.3,1.1l-3.9,9.1h-0.7l-3.9-9
		c-0.1-0.2-0.2-0.6-0.3-1.2h0c0,0.5,0.1,1.2,0.1,2.3v7.9H7.1V26h1.8l3.5,8.2c0.3,0.6,0.4,1.1,0.5,1.4H13c0.3-0.8,0.5-1.2,0.6-1.4
		l3.6-8.2h1.7V37.8"/>
	<path class="st11" d="M22.6,37.8h-1.3v-8.4h1.3V37.8 M22.8,26.3c0,0.3-0.1,0.5-0.3,0.6c-0.2,0.2-0.4,0.3-0.6,0.3
		c-0.2,0-0.4-0.1-0.6-0.2c-0.2-0.2-0.2-0.4-0.2-0.6c0-0.2,0.1-0.4,0.2-0.6c0.2-0.2,0.4-0.3,0.6-0.3c0.2,0,0.5,0.1,0.6,0.3
		C22.8,25.9,22.8,26.1,22.8,26.3"/>
	<path class="st11" d="M30.4,37.4C29.8,37.8,29,38,28.2,38c-0.8,0-1.4-0.2-2-0.5c-0.6-0.4-1.1-0.9-1.4-1.5c-0.3-0.6-0.5-1.4-0.5-2.2
		c0-1.4,0.4-2.5,1.2-3.4c0.8-0.8,1.8-1.3,3.1-1.3c0.7,0,1.4,0.1,1.9,0.4v1.4c-0.6-0.4-1.3-0.7-2-0.7c-0.9,0-1.5,0.3-2.1,0.9
		c-0.5,0.6-0.8,1.4-0.8,2.4c0,1,0.3,1.8,0.8,2.3c0.5,0.6,1.2,0.9,2,0.9c0.7,0,1.4-0.2,2-0.7V37.4"/>
	<path class="st11" d="M36.3,30.7c-0.2-0.2-0.6-0.3-1-0.3c-0.6,0-1.1,0.3-1.4,0.8c-0.4,0.6-0.5,1.3-0.5,2.2v4.3H32v-8.4h1.3v1.7h0
		c0.2-0.6,0.5-1,0.8-1.4c0.4-0.3,0.8-0.5,1.3-0.5c0.3,0,0.6,0,0.8,0.1V30.7"/>
	<path class="st11" d="M43.2,33.6c0-1.1-0.2-1.9-0.7-2.4c-0.5-0.6-1.1-0.8-2-0.8c-0.8,0-1.5,0.3-2,0.9c-0.5,0.6-0.7,1.4-0.7,2.4
		c0,1,0.2,1.8,0.7,2.4c0.5,0.6,1.2,0.9,2,0.9c0.9,0,1.5-0.3,2-0.8C43,35.4,43.2,34.6,43.2,33.6 M44.6,33.5c0,1.3-0.4,2.4-1.1,3.2
		c-0.7,0.8-1.7,1.2-3,1.2c-1.2,0-2.2-0.4-2.9-1.2c-0.7-0.8-1.1-1.8-1.1-3.1c0-1.4,0.4-2.5,1.1-3.3c0.7-0.8,1.8-1.2,3.1-1.2
		c1.2,0,2.2,0.4,2.9,1.2C44.2,31.1,44.6,32.1,44.6,33.5"/>
	<path class="st11" d="M50.7,35.5c0,0.7-0.3,1.3-0.8,1.8c-0.5,0.5-1.3,0.7-2.2,0.7c-0.8,0-1.5-0.2-2-0.5V36c0.6,0.5,1.4,0.8,2.1,0.8
		c1,0,1.6-0.4,1.6-1.2c0-0.3-0.1-0.6-0.3-0.8c-0.2-0.2-0.7-0.5-1.4-0.8c-0.7-0.3-1.2-0.7-1.5-1c-0.3-0.4-0.5-0.8-0.5-1.5
		c0-0.7,0.3-1.3,0.8-1.7c0.5-0.5,1.2-0.7,2.1-0.7c0.6,0,1.2,0.1,1.8,0.4v1.4c-0.5-0.4-1.2-0.6-1.9-0.6c-0.4,0-0.8,0.1-1,0.3
		c-0.3,0.2-0.4,0.5-0.4,0.8c0,0.4,0.1,0.7,0.3,0.9c0.2,0.2,0.6,0.4,1.3,0.7c0.8,0.3,1.3,0.7,1.6,1.1C50.5,34.5,50.7,34.9,50.7,35.5"
		/>
	<path class="st11" d="M58.3,33.6c0-1.1-0.2-1.9-0.7-2.4c-0.5-0.6-1.1-0.8-2-0.8c-0.8,0-1.5,0.3-2,0.9c-0.5,0.6-0.7,1.4-0.7,2.4
		c0,1,0.2,1.8,0.7,2.4c0.5,0.6,1.2,0.9,2,0.9c0.9,0,1.5-0.3,2-0.8C58.1,35.4,58.3,34.6,58.3,33.6 M59.7,33.5c0,1.3-0.4,2.4-1.1,3.2
		c-0.7,0.8-1.7,1.2-3,1.2c-1.2,0-2.2-0.4-2.9-1.2c-0.7-0.8-1.1-1.8-1.1-3.1c0-1.4,0.4-2.5,1.1-3.3c0.7-0.8,1.8-1.2,3.1-1.2
		c1.2,0,2.2,0.4,2.9,1.2C59.3,31.1,59.7,32.1,59.7,33.5"/>
	<path class="st11" d="M65.1,26.5c-0.3-0.1-0.5-0.2-0.9-0.2c-0.9,0-1.4,0.6-1.4,1.8v1.3h1.9v1.1h-1.9v7.3h-1.3v-7.3h-1.4v-1.1h1.4
		V28c0-0.9,0.2-1.5,0.7-2.1c0.5-0.5,1.1-0.8,1.9-0.8c0.4,0,0.7,0,1,0.1V26.5"/>
	<path class="st11" d="M69.9,37.7c-0.3,0.2-0.7,0.3-1.2,0.3c-1.4,0-2.2-0.8-2.2-2.5v-5h-1.4v-1.1h1.4v-2.1l1.3-0.4v2.5h2.1v1.1h-2.1
		v4.8c0,0.6,0.1,1,0.3,1.2c0.2,0.2,0.5,0.4,0.9,0.4c0.3,0,0.6-0.1,0.9-0.3V37.7"/>
	<path class="st11" d="M80.5,29.6c0-1.6-0.9-2.3-2.7-2.3h-1.6V32h1.4c0.9,0,1.6-0.2,2.1-0.6C80.2,31,80.5,30.4,80.5,29.6 M81.9,29.5
		c0,1.1-0.4,2.1-1.2,2.8c-0.8,0.7-1.8,1-3,1h-1.5v4.5h-1.4V26H78c1.2,0,2.2,0.3,2.9,0.9C81.5,27.5,81.9,28.4,81.9,29.5"/>
	<path class="st11" d="M87.4,33.5l-2,0.3c-0.7,0.1-1.2,0.3-1.4,0.5c-0.3,0.2-0.4,0.6-0.4,1.1c0,0.4,0.1,0.8,0.4,1
		c0.3,0.3,0.7,0.4,1.1,0.4c0.7,0,1.2-0.2,1.6-0.7c0.4-0.5,0.6-1.1,0.6-1.8V33.5 M88.8,37.8h-1.3v-1.3h0c-0.6,1-1.4,1.5-2.5,1.5
		c-0.8,0-1.4-0.2-1.9-0.7c-0.5-0.4-0.7-1-0.7-1.8c0-1.6,0.9-2.5,2.7-2.7l2.5-0.4c0-1.4-0.6-2.1-1.7-2.1c-1,0-1.9,0.3-2.7,1v-1.4
		c0.2-0.2,0.7-0.4,1.2-0.5c0.6-0.2,1.1-0.3,1.6-0.3c1.9,0,2.9,1,2.9,3.1V37.8"/>
	<path class="st11" d="M95.1,30.7c-0.2-0.2-0.6-0.3-1-0.3c-0.6,0-1.1,0.3-1.4,0.8c-0.4,0.6-0.5,1.3-0.5,2.2v4.3h-1.3v-8.4h1.3v1.7h0
		c0.2-0.6,0.5-1,0.8-1.4c0.4-0.3,0.8-0.5,1.3-0.5c0.3,0,0.6,0,0.8,0.1V30.7"/>
	<path class="st11" d="M101.3,37.7c-0.3,0.2-0.7,0.3-1.2,0.3c-1.4,0-2.2-0.8-2.2-2.5v-5h-1.4v-1.1h1.4v-2.1l1.3-0.4v2.5h2.1v1.1
		h-2.1v4.8c0,0.6,0.1,1,0.3,1.2c0.2,0.2,0.5,0.4,0.9,0.4c0.3,0,0.6-0.1,0.9-0.3V37.7"/>
	<path class="st11" d="M109.9,37.8h-1.3v-4.8c0-1.8-0.6-2.7-1.9-2.7c-0.6,0-1.2,0.3-1.6,0.8c-0.4,0.5-0.7,1.1-0.7,1.9v4.8h-1.3v-8.4
		h1.3v1.4h0c0.6-1.1,1.5-1.6,2.7-1.6c0.9,0,1.6,0.3,2.1,0.9c0.5,0.6,0.7,1.5,0.7,2.6V37.8"/>
	<path class="st11" d="M117.2,32.7c0-0.8-0.2-1.4-0.6-1.8c-0.4-0.4-0.9-0.6-1.5-0.6c-0.6,0-1.1,0.2-1.6,0.7c-0.4,0.4-0.7,1-0.8,1.8
		H117.2 M118.6,33.9h-5.8c0,0.9,0.3,1.7,0.7,2.2c0.5,0.5,1.1,0.8,1.9,0.8c0.9,0,1.8-0.3,2.5-0.9v1.3c-0.7,0.5-1.7,0.8-2.9,0.8
		c-1.2,0-2.1-0.4-2.7-1.2c-0.7-0.8-1-1.8-1-3.2c0-0.8,0.2-1.6,0.5-2.3c0.3-0.7,0.8-1.2,1.4-1.6c0.6-0.4,1.2-0.6,1.9-0.6
		c1.1,0,1.9,0.4,2.5,1.1c0.6,0.7,0.9,1.7,0.9,3V33.9"/>
	<path class="st11" d="M124.4,30.7c-0.2-0.2-0.6-0.3-1-0.3c-0.6,0-1.1,0.3-1.4,0.8c-0.4,0.6-0.5,1.3-0.5,2.2v4.3h-1.3v-8.4h1.3v1.7
		h0c0.2-0.6,0.5-1,0.8-1.4c0.4-0.3,0.8-0.5,1.3-0.5c0.3,0,0.6,0,0.8,0.1V30.7"/>
	<path class="st11" d="M97.1,52.3L96.8,53h0c0-0.2-0.1-0.4-0.2-0.7l-1.4-3.5h-1.3v5.5h0.9V51c0-0.2,0-0.5,0-0.8c0-0.1,0-0.3,0-0.4h0
		c0,0.2,0.1,0.4,0.1,0.5l1.6,4h0.6l1.6-4.1c0-0.1,0.1-0.3,0.1-0.4h0c0,0.4,0,0.8,0,1v3.5h0.9v-5.5h-1.3L97.1,52.3"/>
	<polyline class="st11" points="100.6,54.4 101.5,54.4 101.5,51.4 101.5,50.4 100.6,50.4 100.6,52.8 100.6,54.4 	"/>
	<path class="st11" d="M101.1,48.7c-0.2,0-0.3,0.1-0.4,0.2c-0.1,0.1-0.2,0.2-0.2,0.4c0,0.2,0.1,0.3,0.2,0.4c0.1,0.1,0.2,0.2,0.4,0.2
		s0.3-0.1,0.4-0.2c0.1-0.1,0.2-0.2,0.2-0.4c0-0.1-0.1-0.3-0.2-0.4S101.3,48.7,101.1,48.7"/>
	<path class="st11" d="M104.8,50.4c-0.2,0-0.3-0.1-0.5-0.1c-0.4,0-0.8,0.1-1.1,0.3c-0.3,0.2-0.6,0.4-0.7,0.8
		c-0.2,0.3-0.3,0.7-0.3,1.1c0,0.4,0.1,0.7,0.2,1c0.2,0.3,0.4,0.5,0.7,0.7c0.3,0.2,0.6,0.2,1,0.2c0.4,0,0.8-0.1,1.1-0.3l0,0v-0.9l0,0
		c-0.1,0.1-0.3,0.2-0.4,0.2c-0.2,0.1-0.3,0.1-0.4,0.1c-0.4,0-0.6-0.1-0.9-0.3c-0.2-0.2-0.3-0.5-0.3-0.9c0-0.4,0.1-0.7,0.3-1
		c0.2-0.2,0.5-0.4,0.9-0.4c0.3,0,0.6,0.1,0.9,0.3l0,0v-0.9l0,0C105.1,50.5,105,50.4,104.8,50.4"/>
	<path class="st11" d="M107.8,50.3c-0.2,0-0.4,0.1-0.6,0.2c-0.2,0.1-0.3,0.3-0.4,0.5h0v-0.7h-0.9v4h0.9v-2c0-0.3,0.1-0.6,0.2-0.8
		c0.1-0.2,0.3-0.3,0.6-0.3c0.1,0,0.2,0,0.3,0c0.1,0,0.2,0.1,0.2,0.1l0,0v-0.9l0,0C108.1,50.4,107.9,50.3,107.8,50.3"/>
	<path class="st11" d="M111,53.4c-0.2,0.2-0.4,0.3-0.8,0.3c-0.3,0-0.6-0.1-0.8-0.3c-0.2-0.2-0.3-0.5-0.3-1c0-0.4,0.1-0.8,0.3-1
		c0.2-0.2,0.4-0.3,0.8-0.3c0.3,0,0.6,0.1,0.8,0.3c0.2,0.2,0.3,0.5,0.3,1C111.2,52.8,111.2,53.1,111,53.4 M110.3,50.3
		c-0.6,0-1.1,0.2-1.5,0.6c-0.4,0.4-0.5,0.9-0.5,1.6c0,0.6,0.2,1.1,0.5,1.5c0.4,0.4,0.8,0.5,1.4,0.5c0.6,0,1.1-0.2,1.5-0.6
		c0.4-0.4,0.5-0.9,0.5-1.5c0-0.6-0.2-1.1-0.5-1.5C111.3,50.5,110.9,50.3,110.3,50.3"/>
	<path class="st11" d="M114.2,52c-0.3-0.1-0.5-0.2-0.5-0.3c-0.1-0.1-0.1-0.2-0.1-0.3c0-0.1,0-0.2,0.1-0.3c0.1-0.1,0.2-0.1,0.4-0.1
		c0.2,0,0.3,0,0.5,0.1c0.2,0,0.3,0.1,0.4,0.2l0,0v-0.9l0,0c-0.1,0-0.2-0.1-0.4-0.1c-0.2,0-0.3,0-0.5,0c-0.4,0-0.8,0.1-1.1,0.3
		c-0.3,0.2-0.4,0.5-0.4,0.9c0,0.2,0,0.4,0.1,0.5c0.1,0.1,0.2,0.3,0.3,0.4c0.1,0.1,0.3,0.2,0.6,0.3c0.2,0.1,0.4,0.2,0.5,0.2
		c0.1,0.1,0.2,0.1,0.2,0.2c0,0.1,0.1,0.1,0.1,0.2c0,0.3-0.2,0.4-0.6,0.4c-0.1,0-0.3,0-0.5-0.1c-0.2-0.1-0.4-0.2-0.5-0.3l0,0v0.9l0,0
		c0.1,0.1,0.3,0.1,0.5,0.2c0.2,0,0.4,0.1,0.5,0.1c0.5,0,0.9-0.1,1.1-0.3c0.3-0.2,0.4-0.5,0.4-0.9c0-0.3-0.1-0.5-0.2-0.7
		C114.8,52.4,114.6,52.2,114.2,52"/>
	<path class="st11" d="M118.4,53.4c-0.2,0.2-0.4,0.3-0.8,0.3c-0.3,0-0.6-0.1-0.8-0.3c-0.2-0.2-0.3-0.5-0.3-1c0-0.4,0.1-0.8,0.3-1
		c0.2-0.2,0.4-0.3,0.8-0.3c0.3,0,0.6,0.1,0.8,0.3c0.2,0.2,0.3,0.5,0.3,1C118.7,52.8,118.6,53.1,118.4,53.4 M117.7,50.3
		c-0.6,0-1.1,0.2-1.5,0.6c-0.4,0.4-0.5,0.9-0.5,1.6c0,0.6,0.2,1.1,0.5,1.5c0.4,0.4,0.8,0.5,1.4,0.5c0.6,0,1.1-0.2,1.5-0.6
		c0.4-0.4,0.5-0.9,0.5-1.5c0-0.6-0.2-1.1-0.5-1.5C118.8,50.5,118.3,50.3,117.7,50.3"/>
	<path class="st11" d="M124.5,51.2v-0.8h-0.9v-1.2l0,0l-0.9,0.3l0,0v0.9h-1.4v-0.5c0-0.2,0.1-0.4,0.2-0.5c0.1-0.1,0.2-0.2,0.4-0.2
		c0.1,0,0.3,0,0.4,0.1l0,0v-0.8l0,0c-0.1,0-0.3-0.1-0.5-0.1c-0.3,0-0.5,0.1-0.7,0.2c-0.2,0.1-0.4,0.3-0.5,0.5
		c-0.1,0.2-0.2,0.5-0.2,0.7v0.5h-0.6v0.8h0.6v3.2h0.9v-3.2h1.4v2c0,0.8,0.4,1.3,1.2,1.3c0.1,0,0.3,0,0.4,0c0.1,0,0.2-0.1,0.3-0.1
		l0,0v-0.8l0,0c0,0-0.1,0.1-0.2,0.1c-0.1,0-0.1,0-0.2,0c-0.2,0-0.3,0-0.4-0.1c-0.1-0.1-0.1-0.3-0.1-0.5v-1.9H124.5"/>
	<polyline class="st11" points="86.4,51.4 82.1,51.4 82.1,47 86.4,47 86.4,51.4 	"/>
	<polyline class="st11" points="91.2,51.4 86.9,51.4 86.9,47 91.2,47 91.2,51.4 	"/>
	<polyline class="st11" points="86.4,56.2 82.1,56.2 82.1,51.8 86.4,51.8 86.4,56.2 	"/>
	<polyline class="st11" points="91.2,56.2 86.9,56.2 86.9,51.8 91.2,51.8 91.2,56.2 	"/>
	<path class="st11" d="M11.8,21.2c-0.6,0.3-1.2,0.5-1.9,0.5c-0.5,0-1-0.1-1.4-0.4c-0.4-0.2-0.7-0.6-1-1.1c-0.2-0.5-0.3-1-0.3-1.5
		c0-0.9,0.3-1.7,0.8-2.2c0.6-0.6,1.3-0.9,2.2-0.9c0.6,0,1.2,0.1,1.6,0.3v0.8c-0.5-0.3-1-0.5-1.7-0.5c-0.4,0-0.8,0.1-1.1,0.3
		c-0.3,0.2-0.6,0.5-0.8,0.9c-0.2,0.4-0.3,0.8-0.3,1.3c0,0.7,0.2,1.3,0.6,1.8C8.8,20.8,9.3,21,9.9,21c0.4,0,0.8-0.1,1.2-0.3v-1.6H9.8
		v-0.6h1.9V21.2"/>
	<path class="st11" d="M16.3,19.5c0-0.5-0.1-0.9-0.3-1.2c-0.2-0.3-0.6-0.4-1-0.4c-0.4,0-0.8,0.1-1,0.4c-0.2,0.3-0.4,0.7-0.4,1.2
		c0,0.5,0.1,0.9,0.4,1.2c0.2,0.3,0.6,0.4,1,0.4c0.4,0,0.8-0.1,1-0.4C16.2,20.4,16.3,20,16.3,19.5 M17,19.4c0,0.7-0.2,1.2-0.6,1.6
		c-0.4,0.4-0.9,0.6-1.5,0.6c-0.6,0-1.1-0.2-1.5-0.6c-0.4-0.4-0.5-0.9-0.5-1.6c0-0.7,0.2-1.2,0.6-1.7c0.4-0.4,0.9-0.6,1.5-0.6
		c0.6,0,1.1,0.2,1.4,0.6C16.8,18.2,17,18.8,17,19.4"/>
	<polyline class="st11" points="18.9,21.6 18.2,21.6 18.2,15.3 18.9,15.3 18.9,21.6 	"/>
	<path class="st11" d="M23.2,19.7V19c0-0.3-0.1-0.6-0.3-0.9c-0.2-0.2-0.5-0.3-0.8-0.3c-0.4,0-0.7,0.2-0.9,0.5
		c-0.2,0.3-0.3,0.7-0.3,1.2c0,0.5,0.1,0.9,0.3,1.1c0.2,0.3,0.5,0.4,0.9,0.4c0.4,0,0.7-0.1,0.9-0.4C23.1,20.4,23.2,20.1,23.2,19.7
		 M23.9,21.6h-0.7v-0.7h0c-0.3,0.5-0.8,0.8-1.4,0.8c-0.5,0-0.9-0.2-1.2-0.6c-0.3-0.4-0.5-0.9-0.5-1.5c0-0.7,0.2-1.3,0.5-1.7
		c0.3-0.4,0.8-0.6,1.4-0.6c0.6,0,1,0.2,1.2,0.7h0v-2.6h0.7V21.6"/>
</g>
</svg>
