<svg xmlns="http://www.w3.org/2000/svg" xmlns:xlink="http://www.w3.org/1999/xlink" version="1.1" x="0px" y="0px" viewBox="0 0 90 112.5" enable-background="new 0 0 90 90" xml:space="preserve"><polygon points="0,0 0,0 0,0 "/><polygon points="0,0 0,0 0,0 "/><g fill="#FFF"><path d="M75.154,20.04c-0.908-0.907-2.113-1.407-3.395-1.407H55.286c-2.649,0-4.805,2.154-4.805,4.802v18.23h-32.24   c-2.647,0-4.802,2.153-4.802,4.801v16.476c0,2.649,2.154,4.804,4.802,4.804h32.396c0.544,2.138,2.443,3.622,4.646,3.622H71.76   c2.647,0,4.801-2.154,4.801-4.802v-43.13C76.562,22.154,76.062,20.948,75.154,20.04z M18.241,66.784   c-2.116,0-3.839-1.724-3.839-3.842V46.469c0-2.117,1.723-3.84,3.839-3.84h32.238v1.37H20.15c-0.266,0-0.482,0.216-0.482,0.481   v20.451c0,0.266,0.217,0.481,0.482,0.481h30.329v1.152c0,0.069,0.009,0.137,0.018,0.203c0.001,0.005,0.002,0.01,0.002,0.016H18.241   z M50.48,44.964v19.488H20.632V44.964H50.48z M75.6,66.568c0,2.116-1.723,3.839-3.84,3.839H55.284   c-1.691,0-3.203-1.146-3.675-2.787l-0.021-0.071c-0.03-0.102-0.059-0.197-0.076-0.3c-0.017-0.09-0.023-0.184-0.029-0.276   l-0.008-0.097c-0.004-0.043-0.009-0.086-0.015-0.127c-0.008-0.061-0.017-0.12-0.017-0.181V23.436c0-2.117,1.724-3.84,3.842-3.84   H71.76c2.117,0,3.84,1.723,3.84,3.84V66.568z"/><path d="M65.436,64.53c-0.087-0.087-0.188-0.173-0.327-0.278c-0.471-0.348-1.02-0.53-1.587-0.53c-1.479,0-2.681,1.203-2.681,2.682   c0,0.158,0.017,0.322,0.051,0.501c0.028,0.15,0.075,0.291,0.114,0.397c0.055,0.146,0.115,0.276,0.184,0.396   c0.476,0.854,1.37,1.385,2.333,1.385c1.478,0,2.68-1.2,2.68-2.677c0-0.551-0.17-1.084-0.491-1.542   C65.621,64.738,65.531,64.629,65.436,64.53z M63.521,68.119c-0.499,0-0.974-0.224-1.304-0.613c-0.089-0.106-0.165-0.221-0.226-0.34   c-0.06-0.114-0.102-0.228-0.131-0.346c-0.038-0.151-0.058-0.288-0.058-0.417c0-0.949,0.771-1.722,1.718-1.722   c0.404,0,0.801,0.151,1.115,0.425c0.101,0.088,0.187,0.18,0.261,0.277c0.084,0.114,0.149,0.224,0.198,0.333   c0.096,0.226,0.145,0.455,0.145,0.685C65.24,67.349,64.469,68.119,63.521,68.119z"/><path d="M73.747,24.862h-20.45c-0.267,0-0.482,0.216-0.482,0.481v36.878c0,0.266,0.216,0.48,0.482,0.48h20.45   c0.266,0,0.481-0.215,0.481-0.48V25.344C74.229,25.078,74.013,24.862,73.747,24.862z M73.265,61.738H53.776V25.824h19.488V61.738z"/><path d="M31.775,37.937c0.266,0,0.482-0.217,0.482-0.482c0-6.819,5.285-12.335,12.074-12.656l-2.66,3.062   c-0.175,0.203-0.153,0.502,0.049,0.681c0.195,0.169,0.512,0.146,0.68-0.047l3.4-3.911c0.075-0.089,0.115-0.198,0.115-0.316   c0-0.141-0.061-0.273-0.166-0.365l-3.909-3.397c-0.193-0.168-0.511-0.146-0.68,0.048c-0.174,0.203-0.153,0.502,0.049,0.68   l3.005,2.612c-3.444,0.182-6.658,1.644-9.074,4.134c-2.48,2.558-3.848,5.924-3.848,9.479C31.293,37.721,31.51,37.937,31.775,37.937   z"/></g></svg>