<svg id="Layer_1" data-name="Layer 1" xmlns="http://www.w3.org/2000/svg" width="93" height="54" viewBox="0 0 93 54"><title>send_btn</title><path d="M63,13.2H75.19a2.87,2.87,0,0,1,2.23,1.06l13.82,17a2.26,2.26,0,0,1,.51,1.42v9" fill="none" stroke="#ff5a4f" stroke-linecap="round" stroke-miterlimit="10"/><path d="M74.29,18.76V30.93a1,1,0,0,0,1,1h10A1,1,0,0,0,86,30.3l-10-12.17A1,1,0,0,0,74.29,18.76Z" fill="none" stroke="#ff5a4f" stroke-miterlimit="10"/><rect x="66.63" y="17.76" width="3.61" height="14.17" rx="1.81" ry="1.81" fill="none" stroke="#ff5a4f" stroke-miterlimit="10"/><line x1="83.1" y1="44.73" x2="91.75" y2="44.73" fill="none" stroke="#ff5a4f" stroke-linecap="round" stroke-miterlimit="10"/><line x1="35.82" y1="44.73" x2="70.82" y2="44.73" fill="none" stroke="#ff5a4f" stroke-linecap="round" stroke-miterlimit="10"/><line x1="20.87" y1="44.73" x2="23.82" y2="44.73" fill="none" stroke="#ff5a4f" stroke-linecap="round" stroke-miterlimit="10"/><line x1="1.84" y1="44.73" x2="8.81" y2="44.73" fill="none" stroke="#ff5a4f" stroke-linecap="round" stroke-miterlimit="10"/><path d="M77.09,41.21a6,6,0,1,1-6,6,6,6,0,0,1,6-6m0-.75a6.75,6.75,0,1,0,6.75,6.75,6.75,6.75,0,0,0-6.75-6.75Z" fill="#ff5a4f"/><path d="M77.09,45.66a1.55,1.55,0,1,1-1.55,1.55,1.55,1.55,0,0,1,1.55-1.55m0-.75a2.3,2.3,0,1,0,2.3,2.3,2.3,2.3,0,0,0-2.3-2.3Z" fill="#ff5a4f"/><path d="M14.81,41.21a6,6,0,1,1-6,6,6,6,0,0,1,6-6m0-.75a6.75,6.75,0,1,0,6.75,6.75,6.75,6.75,0,0,0-6.75-6.75Z" fill="#ff5a4f"/><path d="M14.81,45.66a1.55,1.55,0,1,1-1.55,1.55,1.55,1.55,0,0,1,1.55-1.55m0-.75a2.3,2.3,0,1,0,2.3,2.3,2.3,2.3,0,0,0-2.3-2.3Z" fill="#ff5a4f"/><path d="M29.82,41.21a6,6,0,1,1-6,6,6,6,0,0,1,6-6m0-.75a6.75,6.75,0,1,0,6.75,6.75,6.75,6.75,0,0,0-6.75-6.75Z" fill="#ff5a4f"/><path d="M29.82,45.66a1.55,1.55,0,1,1-1.55,1.55,1.55,1.55,0,0,1,1.55-1.55m0-.75a2.3,2.3,0,1,0,2.3,2.3,2.3,2.3,0,0,0-2.3-2.3Z" fill="#ff5a4f"/><line x1="91.75" y1="42.77" x2="91.75" y2="43.44" fill="none" stroke="#ff5a4f" stroke-linecap="round" stroke-miterlimit="10"/><line x1="63" y1="13.2" x2="63" y2="44.16" fill="none" stroke="#ff5a4f" stroke-linecap="round" stroke-miterlimit="10"/><line x1="26.23" y1="41.77" x2="18.45" y2="41.77" fill="none" stroke="#ff5a4f" stroke-linecap="round" stroke-miterlimit="10"/><path d="M10.93,41.77H1.29a.68.68,0,0,1-.68-.68V1.61A.68.68,0,0,1,1.29.94h58a.68.68,0,0,1,.68.68V41.09a.68.68,0,0,1-.68.68H33.81" fill="none" stroke="#ff5a4f" stroke-linecap="round" stroke-linejoin="round"/><path d="M.61.94,29.45,28.58a1.24,1.24,0,0,0,1.71,0L60,.94" fill="none" stroke="#ff5a4f" stroke-miterlimit="10"/><line x1="0.61" y1="41.77" x2="22.88" y2="21.97" fill="none" stroke="#ff5a4f" stroke-miterlimit="10"/><line x1="60" y1="41.77" x2="37.73" y2="21.97" fill="none" stroke="#ff5a4f" stroke-miterlimit="10"/></svg>