<svg id="Layer_1" data-name="Layer 1" xmlns="http://www.w3.org/2000/svg" width="131" height="54" viewBox="0 0 131 54"><title>sent_btn</title><path d="M101.4,13.23h12.19a2.87,2.87,0,0,1,2.23,1.06l13.82,17a2.26,2.26,0,0,1,.51,1.42v9" fill="none" stroke="#ff5a4f" stroke-linecap="round" stroke-miterlimit="10"/><path d="M112.69,18.8V31a1,1,0,0,0,1,1h10a1,1,0,0,0,.77-1.63l-10-12.17A1,1,0,0,0,112.69,18.8Z" fill="none" stroke="#ff5a4f" stroke-miterlimit="10"/><rect x="105.03" y="17.8" width="3.61" height="14.17" rx="1.81" ry="1.81" fill="none" stroke="#ff5a4f" stroke-miterlimit="10"/><line x1="121.49" y1="44.77" x2="130.14" y2="44.77" fill="none" stroke="#ff5a4f" stroke-linecap="round" stroke-miterlimit="10"/><line x1="74.22" y1="44.77" x2="109.22" y2="44.77" fill="none" stroke="#ff5a4f" stroke-linecap="round" stroke-miterlimit="10"/><line x1="59.28" y1="44.77" x2="62.22" y2="44.77" fill="none" stroke="#ff5a4f" stroke-linecap="round" stroke-miterlimit="10"/><line x1="40.24" y1="44.77" x2="47.21" y2="44.77" fill="none" stroke="#ff5a4f" stroke-linecap="round" stroke-miterlimit="10"/><path d="M115.49,41.25a6,6,0,1,1-6,6,6,6,0,0,1,6-6m0-.75a6.75,6.75,0,1,0,6.75,6.75,6.75,6.75,0,0,0-6.75-6.75Z" fill="#ff5a4f"/><path d="M115.49,45.7a1.55,1.55,0,1,1-1.55,1.55,1.55,1.55,0,0,1,1.55-1.55m0-.75a2.3,2.3,0,1,0,2.3,2.3,2.3,2.3,0,0,0-2.3-2.3Z" fill="#ff5a4f"/><path d="M53.21,41.25a6,6,0,1,1-6,6,6,6,0,0,1,6-6m0-.75A6.75,6.75,0,1,0,60,47.25a6.75,6.75,0,0,0-6.75-6.75Z" fill="#ff5a4f"/><path d="M53.21,45.7a1.55,1.55,0,1,1-1.55,1.55,1.55,1.55,0,0,1,1.55-1.55m0-.75a2.3,2.3,0,1,0,2.3,2.3,2.3,2.3,0,0,0-2.3-2.3Z" fill="#ff5a4f"/><path d="M68.22,41.25a6,6,0,1,1-6,6,6,6,0,0,1,6-6m0-.75A6.75,6.75,0,1,0,75,47.25a6.75,6.75,0,0,0-6.75-6.75Z" fill="#ff5a4f"/><path d="M68.22,45.7a1.55,1.55,0,1,1-1.55,1.55,1.55,1.55,0,0,1,1.55-1.55m0-.75a2.3,2.3,0,1,0,2.3,2.3,2.3,2.3,0,0,0-2.3-2.3Z" fill="#ff5a4f"/><line x1="130.14" y1="42.81" x2="130.14" y2="43.47" fill="none" stroke="#ff5a4f" stroke-linecap="round" stroke-miterlimit="10"/><line x1="101.4" y1="13.23" x2="101.4" y2="44.2" fill="none" stroke="#ff5a4f" stroke-linecap="round" stroke-miterlimit="10"/><line x1="64.63" y1="41.81" x2="56.88" y2="41.81" fill="none" stroke="#ff5a4f" stroke-linecap="round" stroke-miterlimit="10"/><path d="M44.51,1H97.72a.68.68,0,0,1,.68.68V41.13a.68.68,0,0,1-.68.68H71.67" fill="none" stroke="#ff5a4f" stroke-linecap="round" stroke-miterlimit="10"/><line x1="49.64" y1="41.81" x2="44.51" y2="41.81" fill="none" stroke="#ff5a4f" stroke-linecap="round" stroke-miterlimit="10"/><path d="M44.94,6.66l22.91,22a1.24,1.24,0,0,0,1.71,0L98.2,1.17" fill="none" stroke="#ff5a4f" stroke-linecap="round" stroke-miterlimit="10"/><line x1="44.94" y1="36.54" x2="61.11" y2="22.18" fill="none" stroke="#ff5a4f" stroke-linecap="round" stroke-miterlimit="10"/><line x1="98.2" y1="41.61" x2="76.29" y2="22.17" fill="none" stroke="#ff5a4f" stroke-linecap="round" stroke-miterlimit="10"/><line x1="34.05" y1="29.33" x2="25.74" y2="29.33" fill="none" stroke="#ff5a4f" stroke-linecap="round" stroke-linejoin="round"/><line x1="22.13" y1="29.22" x2="19.92" y2="29.22" fill="none" stroke="#ff5a4f" stroke-linecap="round" stroke-linejoin="round"/><line x1="25.68" y1="41.64" x2="19.14" y2="41.64" fill="none" stroke="#ff5a4f" stroke-linecap="round" stroke-linejoin="round"/><line x1="29.01" y1="41.64" x2="32.45" y2="41.64" fill="none" stroke="#ff5a4f" stroke-linecap="round" stroke-linejoin="round"/><line x1="14.59" y1="41.64" x2="3.07" y2="41.64" fill="none" stroke="#ff5a4f" stroke-linecap="round" stroke-linejoin="round"/><line x1="37.23" y1="21.59" x2="32.49" y2="21.59" fill="none" stroke="#ff5a4f" stroke-linecap="round" stroke-linejoin="round"/><line x1="47.76" y1="21.59" x2="40.25" y2="21.59" fill="none" stroke="#ff5a4f" stroke-linecap="round" stroke-linejoin="round"/><line x1="28.36" y1="21.59" x2="26.51" y2="21.59" fill="none" stroke="#ff5a4f" stroke-linecap="round" stroke-linejoin="round"/><line x1="11.51" y1="12.15" x2="9.66" y2="12.15" fill="none" stroke="#ff5a4f" stroke-linecap="round" stroke-linejoin="round"/><line x1="22.13" y1="12.15" x2="18.74" y2="12.15" fill="none" stroke="#ff5a4f" stroke-linecap="round" stroke-linejoin="round"/><line x1="0.66" y1="22.74" x2="4.1" y2="22.74" fill="none" stroke="#ff5a4f" stroke-linecap="round" stroke-miterlimit="10"/><line x1="20.44" y1="0.97" x2="13.29" y2="0.97" fill="none" stroke="#ff5a4f" stroke-linecap="round" stroke-miterlimit="10"/><line x1="10.18" y1="0.97" x2="7.5" y2="0.97" fill="none" stroke="#ff5a4f" stroke-linecap="round" stroke-miterlimit="10"/><line x1="37.86" y1="0.97" x2="30.89" y2="0.97" fill="none" stroke="#ff5a4f" stroke-linecap="round" stroke-miterlimit="10"/></svg>